<?xml version="1.0" encoding="utf-8"?>
<!-- Generator: Adobe Illustrator 27.0.0, SVG Export Plug-In . SVG Version: 6.00 Build 0)  -->
<svg version="1.1" id="Layer_1" xmlns="http://www.w3.org/2000/svg" xmlns:xlink="http://www.w3.org/1999/xlink" x="0px" y="0px"
	 viewBox="0 0 2048 2048" style="enable-background:new 0 0 2048 2048;" xml:space="preserve">
<style type="text/css">
	.st0{fill:#E00028;stroke:#E00028;stroke-linecap:round;stroke-linejoin:round;stroke-miterlimit:10;}
	.st1{fill:#FFFFFF;stroke:#FFFFFF;stroke-linecap:round;stroke-linejoin:round;stroke-miterlimit:10;}
	.st2{fill:none;stroke:#FFFFFF;stroke-linecap:round;stroke-linejoin:round;stroke-miterlimit:10;}
</style>
<g id="Layer_3_9_">
	<g>
		<g>
			<path class="st0" d="M2048,958.53l-120.3-0.8l-1.61-120.48l-93.83-0.61l-0.47,120.15l-120.25,0.85c0,0-1.23-37.62-4.11-49.73
				c-35.64-148.56-301.71-70.57-301.71-70.57l14.79,71.28c0,0,128.24-20.04,173.09-6.05c11.91,3.73,27.6,10.82,24.34,52.84
				c0,0-83.38-0.05-110.94,2.98c-45.23,5.01-108.86,27.75-111.31,105.97c-3.55,112.31,105.93,120.11,130.55,122.9
				c63.67,7.28,184.44-15.03,184.44-15.03l-0.24-131.36l121.57-1.13l1.47,129.61l92.88,0.47l-0.43-130.93l121.62,1.37L2048,958.53z
				 M1530.23,1105.86c-14.65-0.8-41.93-3.92-41.93-34.84c0-29.02,27.13-30.77,41.41-31.29c22.12-0.8,89.52,0.24,89.52,0.24
				l0.09,63.43C1619.33,1103.35,1552.02,1107.09,1530.23,1105.86z"/>
		</g>
	</g>
	<g>
		<g>
			<path class="st1" d="M109.57,915.56l-34.27,0.33l-75.3,173l24.96,0.47l19.24-44.24l96.57,0.57l19.19,43.91l26-0.19L109.57,915.56
				z M53.74,1026.87l39.23-97.32l38.19,97.09L53.74,1026.87z"/>
		</g>
	</g>
	<path class="st1" d="M302.46,1089.69l22.64-0.24V980.93c-4.25-46.46-97.47-6.62-97.47-6.62l-0.24-14.42h-20.28l0.47,129.32
		l21.93-0.24l-0.71-94.39c0,0,70.43-33.94,72.93-3.78L302.46,1089.69z"/>
	<path class="st1" d="M444.36,1070.41c-47.5,12.76-45.14-10.02-45.14-10.02l-0.33-82.34l44.53,0.52l0.14-18.77h-44.62l-0.38-33.61
		l-23.96,0.19l0.19,34.27l-26.9,0.14v17.73l26.9-0.14l0.9,88.44c0,0-3.5,43.39,68.63,24.06L444.36,1070.41z"/>
	<path class="st1" d="M980.84,1070.41c-47.5,12.76-45.14-10.02-45.14-10.02l-0.33-82.34l44.53,0.52l0.14-18.77h-44.62l-0.38-33.61
		l-23.96,0.19l0.19,34.27l-26.9,0.14v17.73l26.9-0.14l0.9,88.44c0,0-3.5,43.39,68.63,24.06L980.84,1070.41z"/>
	<polygon class="st1" points="471.02,959.61 471.44,1090.45 496.54,1090.26 495.98,959.47 	"/>
	<polygon class="st1" points="471.02,911.49 471.02,938.25 496.54,938.48 496.54,911.49 	"/>
	<polygon class="st1" points="688.45,959.61 688.87,1090.45 713.97,1090.26 713.41,959.47 	"/>
	<polygon class="st1" points="688.45,911.49 688.45,938.25 713.97,938.48 713.97,911.49 	"/>
	<polygon class="st1" points="1010.2,961.41 1010.67,1092.24 1035.72,1092.1 1035.16,961.31 	"/>
	<polygon class="st1" points="1010.2,913.34 1010.2,940.04 1035.72,940.28 1035.72,913.34 	"/>
	<g>
		<g>
			<path class="st1" d="M647.85,976.25c-20.42-35.88-89.62-8.89-89.62-8.89l-0.38-57.05l-24.06-0.05l0.52,178.2
				c42.12,6.57,102.1,14.27,116.47-25.81C655.41,1049.61,658.34,994.78,647.85,976.25z M630.88,1052.3
				c-6.9,35.36-72.79,18.39-72.79,18.39l0.52-80.97c0,0,63.95-28.93,72.37,6C634.04,1008.53,633.71,1037.65,630.88,1052.3z"/>
		</g>
	</g>
	<g>
		<g>
			<path class="st1" d="M868.82,1011.28c-0.09-29.97-24.48-54.22-54.45-54.12l-17.96,0.05c-29.12,0.09-52.7,23.78-52.61,52.89
				l0.05,29.73c0.05,28.93,23.54,52.37,52.51,52.37h19.52c29.35,0,53.13-23.87,53.03-53.22L868.82,1011.28z M812.57,1070.97h-12.53
				c-18.58,0-33.65-16.21-33.7-36.21l-0.05-20.56c-0.05-20.14,15.08-36.49,33.8-36.54l11.53-0.05
				c19.24-0.05,34.93,16.69,34.98,37.39l0.05,19.19C846.7,1054.48,831.43,1070.97,812.57,1070.97z"/>
		</g>
	</g>
	<g>
		<g>
			<path class="st1" d="M1111.96,956.07c-29.12,0.09-52.7,23.78-52.61,52.89l0.05,29.73c0.05,28.93,23.54,52.37,52.51,52.37
				c0,0,27.08,2.55,45.61-5.67l0.38-16.92c-13.09,7.04-32.9,6-32.9,6c-21.65,0-39.18-16.59-39.23-37.1l-0.05-21.08
				c-0.05-20.66,17.54-37.44,39.33-37.48c0,0,20.18-1.13,33.94,7.04l0.05-2.36l1.18-19.19
				C1142.45,952.24,1111.96,956.07,1111.96,956.07z"/>
		</g>
	</g>
	<g>
		<g>
			<path class="st1" d="M1300.04,1036.8c0,0,14.09-78.79-58.9-78.79c-66.98-3.59-62.49,66.79-59.18,94.49
				c1.61,13.57,9.74,33.89,37.96,39.42c26.85,5.25,76.15-5.53,76.15-5.53l-3.36-19c0,0-42.64,8.89-66.74,5.1
				c-27.89-4.4-21.22-35.83-21.22-35.83L1300.04,1036.8z M1240.67,976.58c46.32,0,37.72,40.41,37.72,40.41l-73.64-0.14
				C1204.75,1016.85,1197.85,976.58,1240.67,976.58z"/>
		</g>
	</g>
	<path class="st2" d="M636.97,1185.27c-4.35-1.94-14.84-1.32-14.84-1.32c-10.02,0.05-15.69,7.94-15.55,19l0.19,13.71
		c0.14,9.31,6.95,16.78,15.36,16.78c0,0,9.41,0.76,14.94-2.55"/>
	<path class="st2" d="M821.51,1185.27c-4.35-1.94-14.84-1.32-14.84-1.32c-10.02,0.05-15.69,7.94-15.55,19l0.19,13.71
		c0.14,9.31,6.95,16.78,15.36,16.78c0,0,9.41,0.76,14.94-2.55"/>
	<path class="st2" d="M584.74,1163.24c-5.25-3.03-22.26-2.08-22.26-2.08c-9.12-0.09-16.59,7.28-16.69,16.45v1.7
		c-0.05,7.99,5.25,14.98,12.95,17.16l11.86,1.94c8.74,1.42,15.17,6.38,15.17,15.27v4.25c0,7.23-5.81,14.09-13.09,15.65
		c0,0-24.91,3.4-28.55-2.6"/>
	<path class="st2" d="M1150.63,1184.75c-3.73-2.13-15.83-1.47-15.83-1.47c-6.48-0.05-11.77,5.1-11.82,11.49v1.18
		c-0.05,5.58,3.73,10.49,9.17,11.96l8.41,1.32c6.19,0.99,10.78,4.44,10.78,10.64v2.98c0,5.06-4.11,9.83-9.26,10.92
		c0,0-17.68,2.41-20.28-1.8"/>
	<line class="st2" x1="656.12" y1="1182.38" x2="656.26" y2="1233.48"/>
	<line class="st2" x1="1291.86" y1="1160.03" x2="1292.01" y2="1233.29"/>
	<path class="st2" d="M1185.42,1183.19h8.04c7.52,0,13.61,6.05,13.71,13.52l0.33,22.31c0.09,7.85-6.24,14.23-14.04,14.18l-8.46-0.05
		c-7.94-0.05-14.37-6.43-14.42-14.37l-0.24-20.42C1170.25,1190.04,1177,1183.19,1185.42,1183.19z"/>
	<ellipse class="st2" cx="656.26" cy="1163.76" rx="1.51" ry="3.88"/>
	<path class="st2" d="M681.12,1208.57l32.85,0.09v-11.34c0-7.94-6.43-14.37-14.37-14.32h-4.54c-8.84,0.05-15.98,7.18-15.98,16.02
		v23.26c0,6.19,4.54,11.2,10.73,11.2c0,0,17.35,1.89,22.78-3.07"/>
	<path class="st2" d="M844.2,1208.81l32.85,0.09v-11.34c0-7.94-6.43-14.37-14.37-14.32h-4.54c-8.84,0.05-15.98,7.18-15.98,16.02
		v23.26c0,6.19,4.54,11.2,10.73,11.2c0,0,17.35,1.89,22.78-3.07"/>
	<line class="st2" x1="737.04" y1="1233.53" x2="736.71" y2="1183"/>
	<path class="st2" d="M738.27,1190.8l10.07-5.1c9.64-4.96,21.36-5.67,22.92,1.84l0,0l0.24,46.04"/>
	<g>
		<line class="st2" x1="978.77" y1="1234.09" x2="978.48" y2="1183.52"/>
		<path class="st2" d="M980.04,1191.36l10.07-5.1c9.64-4.96,21.36-5.67,22.92,1.84l0,0l0.24,46.04"/>
	</g>
	<g>
		<line class="st2" x1="1264.59" y1="1181.91" x2="1264.92" y2="1232.49"/>
		<path class="st2" d="M1263.36,1224.64l-10.07,5.1c-9.64,4.96-21.36,5.67-22.92-1.84l0,0l-0.24-46.04"/>
		<path class="st2" d="M922.14,1185.12c5.48-2.46,18.39-1.89,18.39-1.89c8.08,0,14.65,6.57,14.65,14.61l0.05,36.21"/>
	</g>
	<path class="st2" d="M953.29,1209.66l-21.03,0.14c-6.33,0.05-11.39,5.2-11.34,11.53v3.17c0.05,5.72,4.68,10.3,10.4,10.3h0.76
		c8.89,0,17.16-4.58,21.88-12.1l1.23-1.94"/>
	<line class="st2" x1="1072.97" y1="1157.43" x2="1073.44" y2="1233.1"/>
	<path class="st2" d="M1072.97,1183.19l-22.64,0.28c-7.28,0.09-13.14,6-13.19,13.23l0.05,23.63c0,6.66,4.49,12.43,10.92,14.13l0,0
		c7,1.84,14.42-0.24,19.43-5.48l4.21-6.81"/>
</g>
</svg>
