<svg xmlns="http://www.w3.org/2000/svg" viewBox="0 0 492.46 196.76"><defs><style>.cls-1{fill:#e65b51;}.cls-2{fill:#fffbf3;}.cls-3{fill:#fffcf6;}.cls-4{fill:#e22227;}.cls-5{fill:#e22328;}.cls-6{fill:#d1001e;}.cls-7{fill:#a32326;}.cls-8{fill:#a60009;}.cls-9{fill:#ad010c;}.cls-10{fill:#e02b23;}.cls-11{fill:#ad2023;}.cls-12{fill:#9c0104;}.cls-13{fill:#d60422;}.cls-14{fill:#a82023;}.cls-15{fill:#e55148;}.cls-16{fill:#b52024;}.cls-17{fill:#e44a42;}.cls-18{fill:#9b0104;}.cls-19{fill:#ab000b;}.cls-20{fill:#fdfaf3;}.cls-21{fill:#ae2023;}.cls-22{fill:#db212b;}.cls-23{fill:#ea695e;}.cls-24{fill:#e23e3a;}.cls-25{fill:#e3463f;}.cls-26{fill:#db212c;}.cls-27{fill:#e6574d;}.cls-28{fill:#c52028;}.cls-29{fill:#a10007;}.cls-30{fill:#ae0207;}.cls-31{fill:#c32028;}.cls-32{fill:#c92029;}.cls-33{fill:#de2e31;}.cls-34{fill:#d00106;}.cls-35{fill:#ca2029;}.cls-36{fill:#e03837;}.cls-37{fill:#c10308;}.cls-38{fill:#df3234;}.cls-39{fill:#bc2026;}.cls-40{fill:#bd2026;}.cls-41{fill:#dd282e;}.cls-42{fill:#cf070a;}.cls-43{fill:#df3033;}.cls-44{fill:#a61316;}.cls-45{fill:#dd292f;}.cls-46{fill:#a30d10;}.cls-47{fill:#ab181c;}.cls-48{fill:#d53340;}.cls-49{fill:#e13a38;}.cls-50{fill:#ab1d20;}.cls-51{fill:#e62215;}.cls-52{fill:#9f070a;}.cls-53{fill:#e52818;}.cls-54{fill:#e62114;}.cls-55{fill:#c3050b;}.cls-56{fill:#e52819;}.cls-57{fill:#e62c34;}.cls-58{fill:#c90107;}.cls-59{fill:#e2403b;}.cls-60{fill:#d12b35;}.cls-61{fill:#e52331;}.cls-62{fill:#ce2832;}.cls-63{fill:#d22e38;}.cls-64{fill:#ca272f;}.cls-65{fill:#e1392d;}.cls-66{fill:#db3a2d;}.cls-67{fill:#d2303b;}.cls-68{fill:#e34844;}.cls-69{fill:#e76459;}.cls-70{fill:#e22327;}.cls-71{fill:#cd001b;}.cls-72{fill:#d11428;}.cls-73{fill:#e63838;}.cls-74{fill:#bd2c2c;}.cls-75{fill:#a30008;}.cls-76{fill:#a5060b;}.cls-77{fill:#e34c4f;}.cls-78{fill:#b2000f;}.cls-79{fill:#ac070f;}.cls-80{fill:#e74742;}.cls-81{fill:#e5423a;}.cls-82{fill:#e6382d;}.cls-83{fill:#c02015;}.cls-84{fill:#e84541;}.cls-85{fill:#c42c2c;}.cls-86{fill:#c50017;}.cls-87{fill:#c90019;}.cls-88{fill:#bc2024;}.cls-89{fill:#c61f24;}.cls-90{fill:#b52023;}.cls-91{fill:#e0393c;}.cls-92{fill:#b90012;}.cls-93{fill:#c00015;}.cls-94{fill:#c80019;}.cls-95{fill:#d0001d;}.cls-96{fill:#db0222;}.cls-97{fill:#d5001f;}.cls-98{fill:#e54f48;}.cls-99{fill:#cb1f25;}.cls-100{fill:#b50006;}.cls-101{fill:#e63336;}.cls-102{fill:#e51b2f;}.cls-103{fill:#d0202a;}.cls-104{fill:#dd2e39;}.cls-105{fill:#d9212e;}.cls-106{fill:#e23a3e;}.cls-107{fill:#de2b35;}.cls-108{fill:#e65656;}.cls-109{fill:#e33132;}.cls-110{fill:#b20f0a;}.cls-111{fill:#de3543;}.cls-112{fill:#dd303b;}.cls-113{fill:#b00008;}.cls-114{fill:#c0000c;}.cls-115{fill:#9c0306;}.cls-116{fill:#a30004;}.cls-117{fill:#e23a2d;}.cls-118{fill:#a60a06;}.cls-119{fill:#cc130f;}.cls-120{fill:#c0080a;}.cls-121{fill:#e51a2f;}.cls-122{fill:#e52030;}.cls-123{fill:#d8212d;}.cls-124{fill:#dc2632;}.cls-125{fill:#be1f23;}.cls-126{fill:#e84440;}.cls-127{fill:#e13a3f;}.cls-128{fill:#e8655f;}.cls-129{fill:#e8594e;}.cls-130{fill:#e74035;}.cls-131{fill:#9e0a07;}.cls-132{fill:#e6605b;}.cls-133{fill:#ea5f57;}.cls-134{fill:#a91a17;}.cls-135{fill:#e6473b;}.cls-136{fill:#b81214;}.cls-137{fill:#e63b2f;}.cls-138{fill:#e86865;}.cls-139{fill:#990705;}.cls-140{fill:#cc352d;}.cls-141{fill:#e35653;}.cls-142{fill:#c00014;}.cls-143{fill:#d02126;}.cls-144{fill:#e34749;}.cls-145{fill:#e5514f;}.cls-146{fill:#db0215;}.cls-147{fill:#ce0010;}.cls-148{fill:#c9342f;}.cls-149{fill:#e63324;}.cls-150{fill:#e62d1c;}.cls-151{fill:#d61d14;}.cls-152{fill:#de2417;}.cls-153{fill:#bd1710;}.cls-154{fill:#c42024;}.cls-155{fill:#e44f50;}.cls-156{fill:#e84e42;}.cls-157{fill:#ea685e;}.cls-158{fill:#ea686b;}.cls-159{fill:#e9535c;}.cls-160{fill:#ea5e64;}.cls-161{fill:#e84a56;}.cls-162{fill:#b0000d;}.cls-163{fill:#eb6d6d;}.cls-164{fill:#dc3f3e;}.cls-165{fill:#d22529;}.cls-166{fill:#d52b2d;}.cls-167{fill:#b80011;}.cls-168{fill:#cb252a;}.cls-169{fill:#d12a30;}.cls-170{fill:#e13d47;}.cls-171{fill:#e85d5c;}.cls-172{fill:#e5424f;}.cls-173{fill:#a90008;}.cls-174{fill:#a50005;}.cls-175{fill:#df4946;}.cls-176{fill:#d62e37;}.cls-177{fill:#da3636;}.cls-178{fill:#db333d;}.cls-179{fill:#d83031;}.cls-180{fill:#de3842;}.cls-181{fill:#ea6362;}.cls-182{fill:#ea6766;}.cls-183{fill:#ea6b6b;}</style></defs><g id="Layer_2" data-name="Layer 2"><g id="Layer_1-2" data-name="Layer 1"><path class="cls-1" d="M10.88,128.94a162,162,0,0,1,11.51-11.49,15,15,0,0,1,3.28-.31q22.9,0,45.81,0c1.27.34.93,1.32.89,2.2-.12,2.76-1.13,5.31-1.91,7.91-2.76,7.23-6.59,13.61-13.92,17.13a38.76,38.76,0,0,1-22.13,3.18c-7.22-.91-13.66-3.54-18.49-9.23C13.57,135.59,11.52,132.63,10.88,128.94Z"/><path class="cls-2" d="M196.85,127.15c-2.8,5.79-5.67,11.55-8.38,17.38a3.31,3.31,0,0,1-3.09,2.15c-4.13.55-6.3-1-7.85-4.87a104.36,104.36,0,0,0-8.05-15.55c-.39,5.86-.91,11.72-1.1,17.59-.08,2.3-.83,2.84-3,2.8-5.8-.11-5.85,0-5.55-5.72.6-11.16,1.3-22.3,1.83-33.46.08-1.72.57-2.14,2.24-2.16,6.06-.06,6.05-.12,8.52,5.35q5,11.15,10.1,22.25c.32.7.44,1.57,1.44,2.15,4.1-9,8.17-18.08,12.3-27.08.43-.94.46-2.47,1.8-2.54a49.82,49.82,0,0,1,7.23.15c.71.07.51,1.19.54,1.88.66,12.16,1.26,24.32,2,36.47.14,2.18-.47,2.73-2.6,2.7-5.93-.07-6,0-6.39-5.91-.33-4.52-.58-9-.87-13.56C197.6,126.62,197.23,126.68,196.85,127.15Z"/><path class="cls-2" d="M183.63,87.22a54.86,54.86,0,0,1-17.16-3.15c-1.5-.5-2.1-1.22-1.54-2.87.75-2.17.63-5.21,2.1-6.41s4,1,6.08,1.49c5.11,1.16,10.19,2.46,15.5,1.33,2.23-.48,4.13-1.45,4.4-3.91s-1.44-3.88-3.59-4.58-4.66-1.25-7-1.82c-2.15-.53-4.35-.88-6.45-1.55-7.65-2.43-10.2-5.68-10.13-12.62.06-6.25,3.61-10.9,10.43-12.73a37.77,37.77,0,0,1,24.3,1.79c3.14,1.29-.46,4.8-.47,7.35,0,1.88-1.33,1.54-2.58,1.18-5.05-1.44-10.12-2.75-15.44-2.33a12.66,12.66,0,0,0-2.36.4,4.17,4.17,0,0,0-3.36,3.81,3.83,3.83,0,0,0,2.88,4.13,78.3,78.3,0,0,0,7.87,2,53.18,53.18,0,0,1,8.11,2.31c4.71,1.87,7.77,4.95,8,10.27.23,5.65-1.52,10.32-6.72,13.19C192.49,86.74,188.11,87.24,183.63,87.22Z"/><path class="cls-2" d="M273,120.69c0,8.39-.08,15.84.06,23.3,0,2.18-.69,2.67-2.74,2.65-6.3,0-6.3,0-6.3-6.24,0-10.69.05-21.37-.05-32.05,0-2.2.36-3,2.87-3.12,3.92-.23,6.4,1.06,8.75,4.24,5.42,7.36,11.3,14.38,17.5,22.19V125.1c0-4.54-.06-9.07,0-13.61,0-2-1-5,.43-5.69,2.05-1,4.89-.38,7.39-.43,1.21,0,1.14.87,1.14,1.69q0,18.9,0,37.8c0,.57.11,1.2-.53,1.6-1.59,1-8.23-.23-9.45-1.76Z"/><path class="cls-2" d="M290.66,87.24c-10-.16-18.59-3.26-23.36-12.7-6.59-13-2-34.22,21.32-35.6a55.73,55.73,0,0,1,15.9,1.6c.4.09,1,0,1.16.25,2,2.81-.37,5.45-.41,8.2,0,1.93-1.41,1.08-2.43.92-5.36-.87-10.68-2.1-16.19-.89-7.4,1.62-11.69,7.13-11.35,14.84A14,14,0,0,0,287.73,77.6c4.88.63,9.66-.14,14.39-1.19,2.16-.49,3.16,0,3.61,2.35,1.15,6.14,1.27,6.09-4.85,7.34A53.06,53.06,0,0,1,290.66,87.24Z"/><path class="cls-2" d="M151.5,119.18c0,3.32.08,6.64,0,10-.37,12.46-9.3,20-21.72,18.33-10.37-1.36-15.56-7.25-16.15-19.06-.36-7-.06-14.1-.11-21.14,0-1.39.37-1.88,1.86-2,7.07-.36,7.07-.42,7.07,6.67,0,5.54-.11,11.08,0,16.61.2,8.08,6.38,12.58,13.68,10.08a8.54,8.54,0,0,0,6.19-8.11c.28-7.34.3-14.69.21-22,0-2.39.4-3.33,3.06-3.23,5.91.2,5.91,0,5.91,6Z"/><path class="cls-2" d="M399.31,40c6.15,0,12.3,0,18.45,0,1.81,0,2.64.22,2.63,2.38,0,6.73.06,6.73-6.71,6.73-2.32,0-4.65.14-7,0-2.1-.16-2.73.5-2.7,2.65.11,10.48,0,21,.1,31.43,0,2.31-.5,3.08-2.95,3-6.89-.15-6.89,0-6.89-6.87,0-9.07-.11-18.14.07-27.2,0-2.63-.76-3.19-3.19-3.05-3.72.21-7.46,0-11.19.07-1.37,0-1.9-.31-2-1.82-.41-7.28-.47-7.27,6.8-7.27Z"/><path class="cls-2" d="M343.71,105.36c5.45,0,10.9.06,16.34,0,1.75,0,2.15.54,2.17,2.21.07,6,.13,6-5.94,6-2.71,0-6.23-1.14-7.92.46-1.85,1.75-.55,5.34-.59,8.12q-.13,11,0,22.07c0,1.77-.36,2.41-2.31,2.43-6.64,0-6.64.13-6.64-6.58,0-8-.07-15.92.05-23.88,0-2.16-.68-2.78-2.76-2.68-3.22.16-6.46,0-9.68.06-1.42,0-1.87-.45-1.95-1.89-.35-6.33-.41-6.32,5.91-6.32Z"/><path class="cls-3" d="M435.19,63.29c0,6.85,0,13.69,0,20.54,0,1.6-.33,2.26-2.15,2.32-7.81.22-7.8.29-7.8-7.51,0-12,0-24,0-35.94,0-2,.4-2.76,2.61-2.74,7.36,0,7.36-.05,7.36,7.33Z"/><path class="cls-3" d="M315.21,62.69c0-6.74.07-13.49,0-20.23,0-2,.62-2.49,2.57-2.49,7.4,0,7.4-.07,7.4,7.26,0,12.08-.05,24.16.05,36.24,0,2.14-.62,2.68-2.71,2.68-7.26,0-7.26,0-7.26-7.15Z"/><path class="cls-4" d="M297.67,180.65c7,0,7,0,7,7.07,0,6.89,0,6.89-6.71,8.33-1,.21-2,.4-3,.53-9.2,1.2-15.93-3.82-16.66-12.39s4.93-14.69,14.26-15a42,42,0,0,1,7.81.72c1.95.3,1.95,1.18,1.47,2.69s0,3.46-2.68,2.79a20.3,20.3,0,0,0-7.49-.54c-4.61.6-7.72,4.05-7.5,8.33.26,4.95,3.69,8.12,8.75,8,1.3,0,2.6-.45,3.89-.44,2.57,0,2.5-1.58,2.51-3.43,0-2.36-1.69-1.44-2.78-1.55a13.25,13.25,0,0,0-3.33,0c-2.27.31-3-.54-2.89-2.83.1-1.61.4-2.43,2.21-2.3S296,180.65,297.67,180.65Z"/><path class="cls-4" d="M144.13,182.58c0-3.62.07-7.25,0-10.87,0-1.61.27-2.31,2.1-2.27,5.14.12,10.29.16,15.42,0,2.34-.08,2,1.29,2,2.67s.44,2.88-1.94,2.77c-3.22-.16-6.46.1-9.67-.08-2.24-.13-2.1,1.14-2.11,2.63s-.07,2.81,2.13,2.66,4.64,0,6.95-.06c1.91-.07,3.18,0,3.16,2.61,0,2.42-.89,2.86-3,2.72-2.4-.16-4.84.07-7.25-.07s-1.91,1.45-2,2.8-.19,2.76,2.07,2.63c3.21-.19,6.45.09,9.67-.1,2.36-.13,2,1.33,2,2.69s.38,2.81-2,2.75c-5.24-.14-10.49-.1-15.73,0-1.55,0-1.83-.64-1.81-2C144.18,190.23,144.13,186.41,144.13,182.58Z"/><path class="cls-4" d="M217.93,182.53c0-3.73.06-7.46,0-11.19,0-1.44.43-1.91,1.88-1.88,5.25.07,10.5.13,15.74,0,2.45-.08,1.84,1.46,1.88,2.75s.33,2.82-2,2.69c-3.22-.19-6.46.08-9.68-.09-2.15-.12-2.22,1-2.17,2.58s-.17,2.83,2.08,2.71c2.71-.15,5.45.07,8.17-.06,2.41-.12,1.83,1.51,1.89,2.82s.27,2.76-1.86,2.48a13.81,13.81,0,0,0-1.82,0c-8.42,0-8.42,0-8.43,2.62s0,2.73,8.57,2.73a28.26,28.26,0,0,0,3.32,0c2.41-.31,1.92,1.34,1.93,2.68s.42,2.8-2,2.73c-5.14-.15-10.29-.13-15.43,0-1.88,0-2.15-.77-2.12-2.34C218,190,217.93,186.26,217.93,182.53Z"/><path class="cls-5" d="M334.92,178.86v-5.74c0-3.1,2-4.43,4.92-3.3,1.24.48.83,1.48.84,2.3.05,4,0,8,0,12.08.05,4.57,2.13,7,6,7.09,4.09.1,6.42-2.2,6.6-6.89.17-4.12.2-8.26,0-12.38-.13-2.72,1.57-2.19,3.13-2.27s2.88-.11,2.76,2.26c-.23,4.53,0,9.07-.19,13.59-.37,7.21-5.2,11.32-12.7,11.11-6.93-.2-11.3-4.72-11.39-11.81C334.9,182.89,334.92,180.87,334.92,178.86Z"/><path class="cls-4" d="M178.1,196.43a27.6,27.6,0,0,1-9.18-1.58c-3-1-.67-3-.61-4.45.09-2.12,1.48-1,2.36-.73a23.05,23.05,0,0,0,9.18,1.47c1.59-.16,3.46-.38,3.58-2.5.12-1.92-1.59-2.4-3-2.8-2.42-.68-4.91-1.11-7.31-1.85-3.07-.93-5-2.87-5.06-6.32s1.4-6.09,4.67-7.39c4.93-2,10-1.25,14.78.38,2.26.77.33,2.53.28,3.83-.06,1.47-.92,1.44-2.1,1.13a25.3,25.3,0,0,0-7.72-1.29c-1.66.07-3.4.28-3.7,2.33-.32,2.24,1.61,2.54,3.11,3,2.31.68,4.73,1,7,1.79,3.63,1.24,5.08,3.29,5.1,6.64a7.63,7.63,0,0,1-5.12,7.45A15.61,15.61,0,0,1,178.1,196.43Z"/><path class="cls-2" d="M319.88,126.15c0,6-.08,12.09,0,18.13,0,1.88-.53,2.35-2.38,2.36-6.34,0-6.34.11-6.34-6.21,0-10.88.06-21.76,0-32.63,0-2,.59-2.5,2.53-2.49,6.19,0,6.19,0,6.19,6Z"/><path class="cls-4" d="M203.06,169.48c3.33,0,6.66.11,10,0,1.88-.08,2.28.74,2,2.3-.19,1.29.83,3.34-1.89,3.09-.2,0-.4,0-.6,0-6.69.12-6.69.12-6.69,6.71,0,4.14-.13,8.28.05,12.4.1,2.26-1.15,2.15-2.63,2.06s-3.08.61-3-2c.15-5.54,0-11.09.08-16.63,0-1.93-.43-2.8-2.5-2.56-1.39.16-2.84-.1-4.23.06-2.21.26-2.67-.7-2.69-2.74s.54-2.81,2.69-2.68C196.79,169.62,199.93,169.48,203.06,169.48Z"/><path class="cls-4" d="M129.48,169.48c3.33,0,6.66.13,10,0,2.37-.12,2,1.35,2,2.73s.21,3-2.06,2.66a1.5,1.5,0,0,0-.3,0c-2.2.14-5.05-.94-6.43.41s-.46,4.4-.51,6.68c-.09,4-.14,8.06,0,12.08.1,2.63-1.64,1.93-3,2s-2.77.31-2.71-2c.14-5.53,0-11.08.08-16.61,0-1.88-.36-2.86-2.46-2.58a26.41,26.41,0,0,1-3.33,0c-3.25,0-4.1-1.2-3.36-4.37.3-1.25,1.11-1,1.84-1C122.62,169.47,126.05,169.48,129.48,169.48Z"/><path class="cls-6" d="M43.51,90.43c-1.88-1.6-3.65-4-6.17-.81a3,3,0,0,1-2,.52c-7.7-.36-15.41-.06-23.11-.17a6.49,6.49,0,0,1-3.77-.73c-1-1.47-.67-2.67.71-3.68A9.46,9.46,0,0,1,13.34,85H67a9.79,9.79,0,0,1,3.87.45,2.56,2.56,0,0,1,1.06,3.39c-.58,1.66-2.14,1.68-3.52,1.68C60.12,90.57,51.81,90.79,43.51,90.43Z"/><path class="cls-7" d="M3,107.75c-2.28.59-3-.3-3-2.61C.11,83.68.07,62.22.1,40.76c0-1-.6-2.34,1.12-2.66,2.39,1.18,1,3.4,1.41,5.13.07,1.33-.25,2.71.52,4a5,5,0,0,1,.6,1.54A19,19,0,0,1,4,52.65q0,25.08,0,50.18C4,104.51,4.27,106.29,3,107.75Z"/><path class="cls-8" d="M5.43,134.39a7.79,7.79,0,0,1,2.39-2.49c1.79.94,1.57,2.57,1,3.94-3.93,9.57,2.71,20.23,10.49,24.85,14.6,8.67,34.13,7.45,46.87-3.75,5.69-5,7.95-11.72,6.62-19.41-.26-1.52-1.12-3.1,0-4.64,1-.67,1.83-.72,2.55.35.12,3,1.41,5.9,1.07,8.92-.84,7.49-4,13.72-10.08,18.43C60.63,165,54,167.15,47.17,169c-5.19.23-10.39.25-15.58,0-6.33-2-12.69-3.95-17.88-8.46-7.69-6.69-11.43-14.67-8.53-25A5.9,5.9,0,0,0,5.43,134.39Z"/><path class="cls-9" d="M9,130.75l.62-.68c1.65-.08,1.77,1.2,2.08,2.31a8.17,8.17,0,0,1,.07,3.87C8.43,147,13.63,153.19,20.14,158.2c10.71,8.22,31.52,7.47,41.76-1.08,6.54-5.46,9.55-12,7.66-20.53a12.49,12.49,0,0,1-.46-3.28c.41-1.35.77-2.79,2.68-1.54,3,11.07,2.34,19.66-8.17,27.53-13.87,10.37-35.26,10-48.58-1.5-4.75-4.09-6.95-9.47-7.73-15.55a8.43,8.43,0,0,1,.61-2.93A46.77,46.77,0,0,0,9,130.75Z"/><path class="cls-10" d="M31.48,1.92C39.47-2,50.55.26,55.59,6.78c2.3,5.06,1.94,9.8-1.65,14.17-2.13,1.1-4.23,0-6.35-.1a4.65,4.65,0,0,1-1-.2,2.15,2.15,0,0,1-1.37-1.26c.37-1.39,1.51-1.24,2.44-1,2.17.53,3.21-.66,3.91-2.37,1.74-4.29.25-7.83-2.69-11A9.61,9.61,0,0,0,38.39,2.78c-3.85,1.63-6.45,4.28-6.75,8.76-.21,3.09.54,5.69,3,7.66a4.5,4.5,0,0,1-4.81,3,1.57,1.57,0,0,1-.69-.66c-1.57-3.68-3.32-7.3-2.39-11.53C27.5,6.79,28.67,3.9,31.48,1.92Z"/><path class="cls-11" d="M78.09,38.14c2.56-.6,1.92,1.33,1.92,2.55q.06,17.22,0,34.45c0,5.44-.09,10.87-.13,16.31-.84,1.47-.84,3.32-2.05,4.61-.71.75-1.46,1.65-2.18,0-.82-3.42.34-6.77.31-10.17-.1-10.93,0-21.86,0-32.79a18.28,18.28,0,0,1,.28-4.49,14.49,14.49,0,0,1,.9-1.91,41.12,41.12,0,0,0,.15-5.55A4.25,4.25,0,0,1,78.09,38.14Z"/><path class="cls-12" d="M79.9,132c.92,13.26-2.34,25.14-11.63,35a17,17,0,0,1-1.59,1.33c-4,1.51-8,.69-12,.55-2-1.86.21-2.07,1.09-2.42a40.56,40.56,0,0,0,12-6.92c6.36-5.51,9.84-12.37,8.79-21a18.36,18.36,0,0,1-.36-5.38C77.17,132.07,78.19,130.91,79.9,132Z"/><path class="cls-13" d="M8.46,89q10.71,0,21.43,0a26.27,26.27,0,0,1,7.45.6,25.7,25.7,0,0,1-4.74,4.81,6.65,6.65,0,0,1-4.3,1c-5.4,0-10.8,0-16.2,0-4.93,0-5.76-1.16-4.64-6A.72.72,0,0,1,8.46,89Z"/><path class="cls-13" d="M43.51,90.43c.75-1.17,2-.78,3-.79,7.4,0,14.8,0,22.2,0,3,0,3.26-.5,2.14-3.62-.8-.76-.73-1.83-1-2.77a9.29,9.29,0,0,0-.78-2,3.2,3.2,0,0,1-.41-2.59A1,1,0,0,1,69.7,78c1.58.85,1.71,2.56,2.37,4,.7,3,2.1,5.87,1.72,9.07-.53,1.29,0,3-1.5,3.91-1.84.74-3.78.48-5.69.49-5.65,0-11.3,0-17,0-1.48,0-3.06.23-4.29-1C46.09,92.49,44.22,91.72,43.51,90.43Z"/><path class="cls-14" d="M3,107.75V47.88A1.86,1.86,0,0,1,5.74,48a7.66,7.66,0,0,1,.67,4.11c.11,17.3-.12,34.59-.13,51.89,0,1.29.16,2.64-.85,3.72Z"/><path class="cls-15" d="M24.81,115l3-3.08c13.8.69,27.6.15,41.39.3a9.88,9.88,0,0,1,3.3.18c1.28,1.64.56,3-.67,4.21a6.77,6.77,0,0,1-3.24.51H28.41a6.79,6.79,0,0,1-2.69-.3C24.93,116.51,24.26,116.06,24.81,115Z"/><path class="cls-16" d="M18.75,196.61c-5,0-10.08,0-15.12.12-1.83.05-2.29-.83-2.14-2.4a38.06,38.06,0,0,1,4.67-15.74c1.51.13,1.57,1.39,1.78,2.41a20.37,20.37,0,0,0,7.81,12.13C16.93,194.06,18.67,194.67,18.75,196.61Z"/><path class="cls-2" d="M463,92c2.15-.19,3.62-.23,4.53,2,.72,1.79,3.54,1.3,4.66-.56.77-1.29,6-2.26,7.08-1.29.52.48.3,1.11.23,1.68-.55,4.65-4.3,7.66-9.59,7.74-5.52.07-9.31-2.78-10.09-7.54C459.22,90.44,462.1,92.57,463,92Z"/><path class="cls-17" d="M72.66,112.61a5.83,5.83,0,0,1-3.21.62q-19.37,0-38.71,0c-1.08,0-2.57.61-2.92-1.25l2.44-2.37a16.73,16.73,0,0,1,3.6-.37c11.4,0,22.81,0,34.21,0,1.5,0,3-.16,4.42.68A1.82,1.82,0,0,1,72.66,112.61Z"/><path class="cls-18" d="M13.21,168.34c-7.3-7.54-12-16.28-12.73-26.93-.12-1.79.26-3.14,1.88-4,1.49-.19,1.72.8,1.55,1.87-1.07,6.54,1.58,11.88,5.31,16.9,3.27,4.4,7.69,7.24,12.62,9.41a8.23,8.23,0,0,1,2.39,1.24c.77.7,1.16,1.47-.17,2.05C20.43,169,16.76,169.84,13.21,168.34Z"/><path class="cls-19" d="M9,130.75c1.39,3.15-.24,6.13-.64,9.15-.81,6.13,1.25,11.24,5.24,15.63,6,6.57,13.64,9.49,22.39,10.39,9.8,1,18.75-1,26.74-6.66,7.64-5.41,11.34-12.73,9.45-22.27-.33-1.67.28-3.46-.75-5a1,1,0,0,1,1.32-.69,1.59,1.59,0,0,1,.5,1.89c-.85,2.22.54,4.2.65,6.34.52,10.6-4.65,17.85-13.64,22.47-15.83,8.15-31.18,7-45.51-3.67-4.94-3.69-10.13-13.35-7-21.52.63-1.62,1.12-3.26.05-4.9A1.93,1.93,0,0,1,9,130.75Z"/><path class="cls-20" d="M394.45,103.59a22.42,22.42,0,0,1,1.22-2.68c1-1.5,1.25-2.55-.47-4s-1.58-3.82-.23-5.75a5.38,5.38,0,0,1,6.8-1.42,4.49,4.49,0,0,1,2.51,5.55,22.88,22.88,0,0,1-4.33,7.54C398.68,104.47,396.57,103.24,394.45,103.59Z"/><path class="cls-21" d="M5.43,107.74V47.89A1.86,1.86,0,0,1,8.12,48a6.55,6.55,0,0,1,.69,3.79c0,8.74,0,17.49,0,26.23a66.62,66.62,0,0,1-.68,7.48,22.51,22.51,0,0,1-.83,4.22c0,1.89-.47,3.76-.38,5.66,0,2.15,0,4.3,0,6.45-.23,2,.57,4.13-.86,6Z"/><path class="cls-22" d="M45.35,94.45H72.66a2.82,2.82,0,0,1,0,3.89,5.24,5.24,0,0,1-3.2.64c-7.86,0-15.72,0-23.59,0-1.27,0-3,.5-3.46-1.48Z"/><path class="cls-23" d="M10.94,132.44a2.43,2.43,0,0,0-1.3-2.37c.19-.62.72-.87,1.24-1.13,2.09,2.83,3.18,6.24,5.55,8.94,5.18,5.91,12,8.47,19.44,9.11,9.08.78,17.89-.49,25.29-6.56,4.26-3.5,6.53-8.31,8.48-13.29a1,1,0,0,1,1.24-.13c.68,2.47-1.34,4.09-1.95,6.15-.8,2-2.26,3.51-3.12,5.43a14.5,14.5,0,0,1-2.49,2.76c-1.07.8-2.17,1.57-3.2,2.45-.7.44-1.37.92-2.07,1.38-.91.5-1.83,1-2.79,1.4-11.49,4.21-22.75,4.17-33.71-1.74a26.38,26.38,0,0,1-5.37-4.46c-.48-.49-.95-1-1.44-1.47a22.67,22.67,0,0,1-2.39-3.21A15,15,0,0,0,10.94,132.44Z"/><path class="cls-24" d="M32.66,107.12a8.18,8.18,0,0,1,2.45-2.38c2.58-.55,5.19-.26,7.78-.27,8.51,0,17,0,25.54,0,1.1,0,2.47.57,3.2-.89.12-.69.17-1.39.27-2.09a25.89,25.89,0,0,1,1.63-5c1.77,2.42,1.07,4.76,1,7-.68,1.66-.07,3.93-2.25,4.91a9.1,9.1,0,0,1-3.28.4c-10.76,0-21.53.05-32.29,0C35.23,108.7,33.37,109.23,32.66,107.12Z"/><path class="cls-25" d="M32.66,107.12c1,1.1,2.27.63,3.42.63,12.2,0,24.39,0,36.58,0a1.69,1.69,0,0,1,.32,2.1l-.31.33q-19.48,0-39,0c-1.16,0-2.44.46-3.44-.59Z"/><path class="cls-16" d="M76.17,183.4a35.71,35.71,0,0,1,2.55,10.73c.23,2-.52,2.68-2.51,2.61-4-.14-8-.1-12-.13-.2-1.28.86-1.76,1.61-2.33A26.92,26.92,0,0,0,74,184.72C74.37,183.93,74.73,182.65,76.17,183.4Z"/><path class="cls-26" d="M6.07,95.07c-.36-1.87.73-3.59.6-5.45.31-.35.51-1,1.19-.6,0,5.44,0,5.45,5.4,5.44q9.68,0,19.34,0A16.54,16.54,0,0,1,29,98.07a3.81,3.81,0,0,1-2.2.87c-6.31,0-12.62.51-18.91-.26C6.11,98.05,7.1,96.06,6.07,95.07Z"/><path class="cls-27" d="M24.81,115c.48,2,2.11,1.18,3.24,1.18,14.67.05,29.34,0,44,0a1,1,0,0,1,.31.61.93.93,0,0,1-.31.6,5.9,5.9,0,0,1-3.2.62q-21.82,0-43.65,0c-1,0-2,.33-2.82-.6A7.46,7.46,0,0,1,24.81,115Z"/><path class="cls-28" d="M69.54,171.92A17.33,17.33,0,0,1,73.72,178c0,8.2-5.47,15.3-14.37,18.62h-3a1,1,0,0,1-.1-.88c.77-1.77,2.38-2.67,3.87-3.67,6.36-4.24,10-9.72,8.5-17.75C68.41,173.42,68,172.23,69.54,171.92Z"/><path class="cls-29" d="M24.81,168.23c-.64-1.18-1.85-1.4-3-1.85C11,162.07,4.72,154,2.47,142.7A4,4,0,0,1,3,139.81c.64-1.07.54-1.88-.67-2.41l3.07-3c1,.85.46,1.79.2,2.75-1.88,6.83.08,12.79,4.18,18.25C14.47,161.6,21,164.89,28.22,167a4.9,4.9,0,0,1,2.65,1.23c-.82.95-1.95.8-3,.86S25.63,169.19,24.81,168.23Z"/><path class="cls-30" d="M71.34,29.08c.09,3,.19,6,.29,9a4.21,4.21,0,0,0-1.19,3.79c0,1.08,0,2.15,0,3.23a4.72,4.72,0,0,1-.4,1.92,1.43,1.43,0,0,1-.79.62A1.59,1.59,0,0,1,67.41,47c-.77-1.91-.39-3.92-.46-5.88a8.72,8.72,0,0,0-.87-3.73,35.1,35.1,0,0,1-.2-9.71c1.12-2.65,3-4.82,4.73-7.77C71.63,23.39,70.73,26.3,71.34,29.08Z"/><path class="cls-31" d="M24.19,196.61H21.77a38.66,38.66,0,0,1-7.63-5.77c-4.65-4.83-6.15-10.58-5-17.1a17.31,17.31,0,0,1,4.09-5c1.37.26,1.89,1,1.41,2.38-.17.47-.3,1-.51,1.42-3.32,7.16,0,12.51,4.78,17.43,1.32,1.37,2.93,2.45,4.21,3.88C23.67,194.69,24.46,195.44,24.19,196.61Z"/><path class="cls-32" d="M23,194.29a25,25,0,0,1-11.29-15.21c-.69-2.61,1.21-5.32,2.19-7.85.53-1.38-.2-1.74-.67-2.49a.61.61,0,0,1,0-.4l11.6-.11,3.05.08c-.39,1.74-1.86,1.18-3,1.4H20.44a8.09,8.09,0,0,1-3-.45,2.49,2.49,0,0,1-.14,2.58c-3.28,6.29-1.34,11.65,3,16.56,1.06,1.2,2.44,2.13,3.13,3.65A2.1,2.1,0,0,1,23,194.29Z"/><path class="cls-33" d="M73.86,103.55v-6l-.32,0-.88,4.23c-1.06,1-2.39.89-3.69.9-8.83,0-17.66,0-26.48,0-1.39,0-3.09.45-3.75-1.5a4.41,4.41,0,0,1,1.82-1.81c4.18-.61,8.38-.21,12.58-.27,5.4-.08,10.8,0,16.2,0,1.18,0,2.44.19,3.32-.92V94.46c.2-1.21-.48-2.57.62-3.64,2,1,1.14,3.15,1.87,4.66.36,3.26.06,6.53.21,9.8-.2,1.2.32,2.75-1.53,3.15A8.8,8.8,0,0,1,73.86,103.55Z"/><path class="cls-34" d="M31.48,1.92c-1.05,2.53-3.09,4.44-3.77,7.31a14.7,14.7,0,0,0,1.16,9.55,5.36,5.36,0,0,1,.71,3.1c-2.73,1.13-4.43.65-5.23-1.88-1.36-4.23-2.47-8.54-.22-12.86C26.16,4.8,28.32,2.66,31.48,1.92Z"/><path class="cls-35" d="M69.54,171.92c-1.25,1.36,0,2.67.13,4,.69,7-2.51,12.1-8,16a37,37,0,0,0-5.36,4.22c-.82-1.55,0-2.71.89-3.87,1.95-1.59,4.1-2.92,5.8-4.83,4.55-5.12,5.2-11.09,1.85-17.06-.72-1.27-1.8-.43-2.69-.65-.93,0-1.85,0-2.78,0s-1.59,0-2.38,0c-1.61-.19-3.2.37-4.82.15-.66-.22-1.28-.49-1.44-1.28.93-1.27,2-1.2,3.17-.34l12.77.1C67.26,169.82,69.28,170.17,69.54,171.92Z"/><path class="cls-36" d="M72.66,103.54c.08,1.24-.42,1.83-1.75,1.83-11.59,0-23.19,0-34.78-.08-.34,0-.68-.36-1-.55l1.8-1.85c4.82-.55,9.66-.18,14.49-.24,5.85-.06,11.7,0,17.54,0C70.25,102.64,71.59,102.55,72.66,103.54Z"/><path class="cls-37" d="M18.67,19.34a16.56,16.56,0,0,1,3.62-9.81c.91.63.72,1.6.69,2.46a21.22,21.22,0,0,0,.9,6.19c1,3.85,1.09,3.9,5,4.07.79,1.47-.48,1.63-1.31,2.07A18.81,18.81,0,0,0,22,26.23c-1,.47-1.91,1.06-3.07.68a3.15,3.15,0,0,1-.86-4.05C18.73,21.71,18.16,20.46,18.67,19.34Z"/><path class="cls-38" d="M72.66,103.54q-16.32,0-32.64,0c-1.06,0-2.25.41-3.11-.63a4.54,4.54,0,0,1,1.83-1.78c.89,1,2.07.59,3.13.6q15.39,0,30.79,0Z"/><path class="cls-39" d="M9.14,173.74c.85.83.6,1.92.51,2.87-.72,7.74,3.3,12.9,9.17,17.09,1.14.82,2.42,1.48,2.95,2.91h-3c-4-3.4-8.28-6.48-10.45-11.59-.9-2.11-.52-4.6-2.14-6.43A15.27,15.27,0,0,1,9.14,173.74Z"/><path class="cls-40" d="M59.35,196.61c1.13-1.7,3.19-2,4.73-3.06a21.26,21.26,0,0,0,9.2-14.48,5.22,5.22,0,0,1,.44-1.08c.9,1.77,2,3.42,2.45,5.41-2.3,1.11-2.39,3.74-3.76,5.52-2.34,3-5.47,5.13-8.21,7.69Z"/><path class="cls-41" d="M72.66,98.09c.08,1.25-.42,1.84-1.75,1.83-9.78,0-19.55,0-29.33-.07-.34,0-.68-.36-1-.55a4.37,4.37,0,0,1,1.82-1.82c.88,1,2.07.59,3.12.6C54.56,98.11,63.61,98.09,72.66,98.09Z"/><path class="cls-42" d="M53.88,20.67c2.52-4.39,2.66-9.07,1.71-13.89a16.62,16.62,0,0,1,5.48,9.64c-.68,1.24-.71,2.69-1.43,3.94C58,23.22,57,23.57,53.78,22A1.1,1.1,0,0,1,53.88,20.67Z"/><path class="cls-43" d="M26.44,100.51a9.86,9.86,0,0,1-2.93,3,5,5,0,0,1-3.37,1c-4.23-.22-8.51.63-12.7-.57-.77-.54-.75-1.34-.74-2.15a1.87,1.87,0,0,1,.71-1.56c4.45-1.31,9-.41,13.52-.59C22.78,99.52,24.79,99.1,26.44,100.51Z"/><path class="cls-44" d="M79.9,108.39v9.07a3.26,3.26,0,0,1-2.05,1.63c-1.82.64-3.47,1.48-4.27,3.43a.68.68,0,0,1-1.2.19c-.87-2.08.1-4.07.32-6.09a3,3,0,0,1,.45-1.31C74.26,111.89,76.05,109.14,79.9,108.39Z"/><path class="cls-45" d="M26.44,100.51H7.26a1.66,1.66,0,0,1,0-2.42l21.7,0C28.49,99.25,27.2,99.61,26.44,100.51Z"/><path class="cls-46" d="M72.55,122.86c1-3.74,4.49-4.15,7.35-5.4v7.86a7.12,7.12,0,0,1-4.24,1.4,6.51,6.51,0,0,1-3.51-.5,2,2,0,0,1-.72-1.34C71.49,124,71.36,123.08,72.55,122.86Z"/><path class="cls-47" d="M79.9,108.39c-2.67,1.87-5.48,3.63-6.09,7.23-1.1-1.65-.3-3.49-.53-5.23,0-.72,0-1.46.66-2,.89-.9.4-2,.55-3.07.68-.81-.07-2,.68-2.76,1.52-1.15,3.08-1.45,4.73-.27Z"/><path class="cls-48" d="M47.23,196.61H35.11c-1.45-1.15-4-1.56-3-4.36a2.2,2.2,0,0,1,.89-.31c4.18.8,8.33,1.94,12.63.87,1.07.06,2.15-.57,3.22,0C49.78,194.71,48.32,195.58,47.23,196.61Z"/><path class="cls-49" d="M7.26,103.54l16.25,0a10.61,10.61,0,0,1-3.44,3.26c-4.28-.17-8.6.78-12.82-.59A1.91,1.91,0,0,1,7.26,103.54Z"/><path class="cls-50" d="M79.9,102.33a12.65,12.65,0,0,0-4.81.6c-.62-1.42-.22-2.91-.27-4.36,0-.94.21-1.81,1.48-1.69,1.91-1.34,1.58-4.16,3.6-5.43Z"/><path class="cls-51" d="M18.67,19.34c.67,2.42-1.2,5.07.68,7.38a2.27,2.27,0,0,1,.6,2.2,2.1,2.1,0,0,1-.43.84,1,1,0,0,1-.89.12c-2.51-2.42-5-4.88-6.4-8.16-.42-1-1.11-2-.09-3l6,3.66Z"/><path class="cls-52" d="M75.69,125.93l4.21-.61V132c-1.46-.37-2.27,1.2-3.6,1.21a1.73,1.73,0,0,1-1.11-.74C74.18,130.18,73.09,127.91,75.69,125.93Z"/><path class="cls-53" d="M12.14,18.7a13,13,0,0,0,3.95,7.43,11.77,11.77,0,0,1,2.67,3.55,1.27,1.27,0,0,1-1.2,1c-1.62-.26-2.48-1.64-3.68-2.51a2.1,2.1,0,0,1-.35-.74c-.58-2-2.11-3.4-3.5-4.87a3.12,3.12,0,0,1-.34-.77,25.49,25.49,0,0,1-.63-4.16C10.67,16.3,11.2,18.1,12.14,18.7Z"/><path class="cls-54" d="M61.8,22.41l5.28-3c1.7,0,1.43,1.33,1,2.05-1.83,3-3.11,6.51-6.71,8a1.46,1.46,0,0,1-.9-.28c-.42-1.12,0-2.19.19-3.27C61.13,24.78,60.69,23.34,61.8,22.41Z"/><path class="cls-55" d="M61.8,22.41c-.24,1.23.43,2.62-.62,3.71C58.9,24.48,55.63,25,53.64,22.7a1.14,1.14,0,0,1,.26-.83c3.53,1.58,4.74-.86,5.86-3.41.34-.75,0-1.93,1.31-2C61.88,18.35,61.74,20.39,61.8,22.41Z"/><path class="cls-56" d="M61.15,29.13c2.95-1.74,4.18-4.9,6.12-7.46.54-.71.9-1.61-.19-2.29,1.08-1,2.12-2.11,3.75-2.19.44,3.45-1.79,5.81-3.46,8.38-.53.81-1.39,1.42-1.46,2.5a3.8,3.8,0,0,1-2.37,2.1,2.7,2.7,0,0,1-2.3-.21A.59.59,0,0,1,61.15,29.13Z"/><path class="cls-57" d="M1.94,43.61c-.47-1.81.55-3.81-.73-5.51h7a4.45,4.45,0,0,1,.95-.33c1.26.08,1.7.76,1.42,2-1.05,1-2-.24-3-.09-1.36.2-2.94-.7-4,.84,1.88,2.07,4.81,1.83,7,3.2a2.14,2.14,0,0,1,0,2.17C7.16,47.08,4.55,45.36,1.94,43.61Z"/><path class="cls-58" d="M29.07,22.48c-4.86,0-6.34-1.74-6.67-7.86-.09-1.69-.07-3.39-.11-5.09a4.9,4.9,0,0,1,1.84-2.39c-.19,3.62-.59,7.17.39,10.85.8,3,2,4.4,5.06,3.89h.15a.45.45,0,1,1-.66.61Z"/><path class="cls-59" d="M7.26,106c3.37,0,6.75,0,10.12,0,1,0,2-.27,2.69.8-1.54,1.6-3.53,1-5.37,1.08-2.48,0-5-.07-7.45-.12A1.22,1.22,0,0,1,7.26,106Z"/><path class="cls-60" d="M30.26,196.61H28.43c-2.54-1.14-3.47-3.6-4.71-5.8a3,3,0,0,1,0-1.31,2,2,0,0,1,.44-.75c1.13-.32,2,.35,2.9.79a8.75,8.75,0,0,1,3.1,3.15C30.43,194,31.28,195.27,30.26,196.61Z"/><path class="cls-61" d="M69.72,41.79c.19-1.45-1.08-3.67,1.91-3.67a27.92,27.92,0,0,1,6.46,0v3.12c-.41.48-.22,1.24-.78,1.65-2.23,1.06-4.33,2.73-7,1.57-.77-1.59-.06-2.42,1.44-2.89A16.08,16.08,0,0,0,75.6,40C72.86,38.56,71.41,40.55,69.72,41.79Z"/><path class="cls-62" d="M57.52,192.47c-.4,1.21-.8,2.42-1.21,3.63v.51H51.49c-.34-2.08,1.46-3.25,2.08-4.93a3.57,3.57,0,0,1,2.11-1.49,1.89,1.89,0,0,1,1.27.26A2.19,2.19,0,0,1,57.52,192.47Z"/><path class="cls-63" d="M53.89,191.87c-.16,1.91-1.76,3.08-2.4,4.74H47.23L49,193.08c.75-1.12,2-1.31,3.15-1.68A1.76,1.76,0,0,1,53.89,191.87Z"/><path class="cls-64" d="M24.21,190.66l4.22,5.94H24.19c-.4-.77-1.27-1.3-1.19-2.32v-2.42C22.53,190.59,22.93,190.19,24.21,190.66Z"/><path class="cls-65" d="M65.4,27.92c1.42-3,4.22-5.29,4.95-8.71.14-.68.32-1.35.48-2,1.23,3.92.41,7.92.51,11.89-1.11-2.5-.09-5.15-.65-8.06a34.49,34.49,0,0,1-4.08,6.28C66.27,27.65,66.09,28.28,65.4,27.92Z"/><path class="cls-66" d="M9.12,38.18l-.91-.08c.48-5.75.38-11.53.43-17.29,0-1.07-.34-2.21.42-3.18a5.94,5.94,0,0,1,1.22,4.24c-1,.19-.48.87-.45,1.4.26,4.12.1,8.25.09,12.37A3.72,3.72,0,0,1,9.12,38.18Z"/><path class="cls-67" d="M30.26,196.61l-.6-4.14a1.67,1.67,0,0,1,2.42,0c0,2.11,2.54,2.38,3,4.14Z"/><path class="cls-68" d="M7.26,106v1.77H6c0-2,0-4,0-6a.82.82,0,0,1,1.21,0c0,.6,0,1.21,0,1.81Z"/><path class="cls-69" d="M72.55,122.86a2.26,2.26,0,0,0-.49,1.85c-.92.56.67,2.33-1.19,2.43H69.64a59.71,59.71,0,0,0,2.42-9.69v-.6c.34-.34.53-1,1.22-.61C73,118.45,72.79,120.66,72.55,122.86Z"/><path class="cls-2" d="M233.75,38.91c-14.75,0-24.81,9.81-24.8,24.18S219,87.21,233.78,87.21s24.84-9.84,24.82-24.15S248.48,38.9,233.75,38.91Zm-.21,38.89c-8.3-.06-14.19-6.16-14.2-14.7s6-14.74,14.51-14.71S248.16,54.47,248.21,63C248.26,71.75,242.22,77.86,233.54,77.8Z"/><path class="cls-2" d="M491,82.64c-5.52-12.28-11.34-24.44-16.42-36.9-2-4.91-4.51-6.93-9.72-6.15-1.83.28-2.79.71-3.51,2.46-1.72,4.18-3.71,8.25-5.57,12.37-4.72,10.42-9.42,20.84-14.31,31.67a23.66,23.66,0,0,1,3.83,0c5.48,1,9-.79,10.13-6.5.33-1.69,1.42-2.09,3.08-2a70.82,70.82,0,0,0,11.47,0c5.66-.74,9.47.7,10.72,6.69.2,1,.61,1.91,2,1.89,3.16-.06,6.33,0,9.8,0C491.85,84.64,491.44,83.63,491,82.64ZM472.39,69c-3.54,0-7.07,0-10.6,0-1.53,0-1.68-.51-1.11-1.8,2-4.6,4-9.23,6.3-14.67,2.37,5.5,4.44,10.25,6.48,15C473.9,68.55,473.49,69,472.39,69Z"/><path class="cls-2" d="M160.29,82.64Q152,64.19,143.7,45.75c-2.78-6.18-2.76-6.12-9.6-6.11a3.16,3.16,0,0,0-3.37,2.2c-4.39,9.94-8.9,19.83-13.37,29.73l-6.6,14.52a26.48,26.48,0,0,1,4,0c5.35,1,8.85-.78,9.9-6.41.35-1.87,1.64-2.17,3.35-2.12a74.8,74.8,0,0,0,11.5-.06c5.57-.7,9.24.83,10.44,6.67.2,1,.59,1.93,2,1.9,3.17,0,6.34,0,9.81,0C161.15,84.65,160.74,83.63,160.29,82.64ZM141.28,69c-3.33-.07-6.66,0-10,0-1.12,0-2.1,0-1.38-1.61,2-4.68,4-9.38,6.39-14.85,2.31,5.36,4.25,10,6.28,14.56C143.24,68.57,142.87,69,141.28,69Z"/><path class="cls-2" d="M380.55,81.9c-5.4-12-11.07-23.92-16.05-36.11-2-4.84-4.39-7-9.67-6.2-1.81.28-2.81.68-3.57,2.39-4.19,9.47-8.5,18.89-12.76,28.33l-7.13,15.78a25.76,25.76,0,0,1,3.6,0c5.4.84,9.38-.43,10.38-6.57.24-1.47,1.27-2,2.85-2a77.28,77.28,0,0,0,11.49,0c5.72-.7,9.71.65,10.95,6.83a1.89,1.89,0,0,0,2.07,1.75c3.09-.08,6.18,0,9.68,0C381.66,84.43,381.11,83.16,380.55,81.9ZM349.92,68.82c2-4.65,3.81-9.07,5.73-13.45.35-.8.44-1.8,1.48-2.37,2.23,5.24,4.45,10.45,6.73,15.82Z"/><path class="cls-2" d="M444.48,146c-2.82-4-5.61-8.11-8.5-12.11-.89-1.24-1.18-1.9.35-3,5.36-4,7.23-9.6,5.45-15.73s-6.48-8.93-12.52-9.75c-5.63-.75-11.28,0-16.91,0-2.32,0-3,.56-3,3,.14,10.58.06,21.17.06,31.75,0,7.08,0,7,7.1,6.64,1.42-.08,2-.47,1.91-1.93-.09-2.81,0-5.64,0-8.46,0-.68-.22-1.46.45-2,1.22-.92,7.16.13,8.06,1.45,2.1,3.07,4.15,6.18,6.26,9.26.49.71.85,1.61,2,1.6,3.08,0,6.15,0,9.11,0C444.43,146.14,444.52,146,444.48,146ZM428.35,126c-2.77.73-5.6.3-8.41.44-1.23.06-1.57-.54-1.54-1.64,0-1.71,0-3.42,0-5.13v-.6c0-6.38,0-6.38,6.52-6.11.91,0,1.81.11,2.71.22,3.58.44,5.72,2.5,6,5.7A6.79,6.79,0,0,1,428.35,126Z"/><path class="cls-2" d="M476.46,110.93c-2.67-6-2.65-6-9.2-5.7a2.4,2.4,0,0,0-2.52,1.57C458.88,119.91,453,133,446.83,146.59a21.12,21.12,0,0,1,3.13,0c4.9.86,8.39-.45,9.36-5.86.27-1.52,1.42-1.65,2.74-1.63a103,103,0,0,0,11.79-.07c4.14-.42,6.62.83,7.6,5,.25,1,.4,2.55,2.08,2.56,2.86,0,5.71,0,8.92,0C487,134.38,481.71,122.66,476.46,110.93Zm-13,20.23c2.05-4.82,4-9.47,6.21-14.56,2.16,5.06,4.14,9.68,6.22,14.56Z"/><path class="cls-2" d="M385.76,106.5c-1.2-2.61-4-.79-6-1.23s-3.18.57-4,2.5c-4.34,9.83-8.83,19.61-13.25,29.41-1.36,3-2.67,6-4.19,9.41a25.5,25.5,0,0,1,3.66,0c4.56.73,7.76-.53,8.68-5.51.27-1.5,1.2-2.05,2.8-2,5,.1,10.09.06,15.13,0,1.29,0,2.49,0,2.79,1.59,1,5.54,4.7,6.71,9.64,5.9a20.32,20.32,0,0,1,2.88,0C397.67,132.84,391.82,119.62,385.76,106.5Zm-.34,24.76c-3.4,0-6.8,0-10.67,0L381,116.66c2.13,4.87,4.05,9.15,5.84,13.48C387.38,131.45,386.15,131.26,385.42,131.26Z"/><path class="cls-2" d="M242.31,110.26c-1.66-4-3.62-5.64-7.95-5.12-2.05.25-3.17.72-4,2.64-3.72,8.46-7.58,16.87-11.38,25.29-2,4.37-3.93,8.75-6.08,13.52a25.87,25.87,0,0,1,3.69,0c4.58.75,7.75-.57,8.67-5.53.28-1.51,1.23-2,2.82-2,5,.1,10.08.06,15.12,0,1.29,0,2.49,0,2.78,1.59,1,5.55,4.71,6.7,9.64,5.9a20.2,20.2,0,0,1,2.87,0C252.89,134.12,247.35,122.29,242.31,110.26Zm-2,21c-3.49,0-7,0-10.91,0,2.08-4.85,4-9.4,6.26-14.62,2.09,4.82,3.91,9,5.74,13.25C241.91,131.07,241.3,131.28,240.31,131.28Z"/><path class="cls-70" d="M327.18,188.71c-1-1.27-1.26-2,.34-3.26,2.93-2.32,3.75-5.6,2.82-9.25-.88-3.49-3.25-5.42-6.67-6.2-4.2-.95-8.42-.33-12.64-.26-1.2,0-1.46.7-1.46,1.77,0,7.65,0,15.3,0,23,0,.67-.1,1.32.87,1.64,3.21,1,5-.2,5-3.59a9.94,9.94,0,0,1,0-1.81c.18-.86-.67-2.33.85-2.45s3.26-.83,4.45.82a13.51,13.51,0,0,1,1.63,2.54c1.69,4.11,4.86,5.15,8.92,4.48.19,0,.37-.1.93-.26C330.43,193.28,328.86,191,327.18,188.71Zm-8.59-5.55c-4,.36-3.06-2.2-3.15-4.33.17-2-1.06-4.54,2.91-4.26,4.67.34,6.85,1.42,6.74,4.27S322.76,182.78,318.59,183.16Z"/><path class="cls-4" d="M259.58,188.27c-.83-1.12-1.13-1.78.25-2.84,3.48-2.67,4.12-6.42,2.79-10.33s-4.6-5.47-8.49-5.64c-3.42-.15-6.85.07-10.27,0-1.43,0-1.63.61-1.62,1.81,0,7.65,0,15.3,0,22.95,0,.75-.18,1.53,1,1.81,3.48.81,4.75-.09,4.75-3.62,0-.91.06-1.82,0-2.72-.09-1.33.59-1.55,1.78-1.78,3.24-.62,4.36,1.75,5.34,3.83,2,4.2,5.13,5.1,9.62,3.91C263,193.12,261.35,190.65,259.58,188.27ZM251,183c-4.16.3-2.78-2.49-2.94-4.45-.43-2.64-.28-4.47,3.33-4.18,4.38.34,6.13,1.23,6.13,4.13C257.5,181.58,255.55,182.64,251,183Z"/><path class="cls-4" d="M375.87,169.56c-3.22-.22-6.46,0-9.68,0-1.76,0-2.17.86-2.13,2.47.1,3.62,0,7.25,0,10.88s.18,7.27-.06,10.88c-.17,2.67,1.41,2.27,3,2.31s3,.19,3-2.37c-.12-5.15.05-5.15,5.24-5.43l.31,0c5.54-.39,9.48-4.29,9.52-9.42C385.14,173.9,381.35,169.93,375.87,169.56Zm-2.94,13.74c-5,.51-2.42-3.33-2.94-5.3-.69-2.61.6-3.52,3.17-3.43,3.93.14,6.17,1.53,6.25,4.19C379.5,181.68,377.17,183.31,372.93,183.3Z"/><path class="cls-71" d="M70.24,83c1,.85.46,2,.61,3H9.07c-.86-1.36-.27-2.25.93-3a12.1,12.1,0,0,1,4.48-.44q26.24,0,52.49,0A8.82,8.82,0,0,1,70.24,83Z"/><path class="cls-72" d="M9.67,83.58A4,4,0,0,0,9.07,86a5,5,0,0,0-.61,3h-.6l-1.19.6c.19-1.21.39-2.41.58-3.62.83-2.35.64-5,1.93-7.19a1.41,1.41,0,0,1,.83-.33,1.48,1.48,0,0,1,1.06.75,2,2,0,0,1,.11.87A7,7,0,0,1,9.67,83.58Z"/><path class="cls-73" d="M1.94,43.61l8.33,2.46c.05.14.11.27.16.41a1.23,1.23,0,0,1-.57.62c-2.39.51-4.78,0-7.17,0l-.28.19C1.39,46.18,2,44.86,1.94,43.61Z"/><path class="cls-74" d="M7.85,47.89H3l-.6-.58v-.11A46.67,46.67,0,0,1,10,47a.69.69,0,0,1,.4.89A1.84,1.84,0,0,1,7.85,47.89Z"/><path class="cls-75" d="M75.69,132.58l.61.61c3.58,12-.8,23.24-13,30.36-3,1.75-6.22,3.13-9.34,4.68-1,.2-2.2-.35-3.1.57a1.18,1.18,0,0,1-1.14.44,2.64,2.64,0,0,1-1.84-1,6,6,0,0,1,3-1.17c6.65-1.42,12.87-4.35,17.43-9,5.17-5.33,8.79-12,6.85-20.17-.37-1.56-.79-3.1,0-4.66C74.91,132.6,75.15,132.44,75.69,132.58Z"/><path class="cls-76" d="M75.69,132.58l-.6.61a1.61,1.61,0,0,0-1.82,0l-.61-1.81c-2.81-1.53-1.42-3.51-.59-5.44h3.62C74.29,128.14,75,130.36,75.69,132.58Z"/><path class="cls-77" d="M47.83,168.24c.64.14,1.39-.07,1.84.63-.88,1-2.07.78-3.19.85H32.18a11.68,11.68,0,0,0-3.44.24,6.89,6.89,0,0,1-1.42.23,3.7,3.7,0,0,1-2.28-.46.74.74,0,0,1-.22-.84c1-.15,2.16.34,3-.58l3-.07Z"/><path class="cls-78" d="M10.94,132.44a5.59,5.59,0,0,1,1.8,3.07,5.26,5.26,0,0,1,.91,3.42c-1.25,9.64,3.65,16,11.75,19.81,11.37,5.3,22.76,4.66,33.46-2.24a20.59,20.59,0,0,0,9-13.53,4.78,4.78,0,0,0-.12-3,6,6,0,0,1,.47-6c.36-.52.68-1.1,1.48-.82,1.75,6.82,2.28,13.46-2.32,19.54-5.58,7.35-13.31,10.89-22.16,11.81-6.69.69-13.54.52-19.82-2.44-8.28-3.92-14.65-9.56-15.57-19.42a13,13,0,0,1,1-5.57A7.52,7.52,0,0,0,10.94,132.44Z"/><path class="cls-79" d="M69.64,133.18l-1.18.62c-.2-.12-.26-.23-.2-.35s.13-.17.19-.17c.81-2.05,1.62-4.09,2.42-6.14l1.19-2.43c0,.41,0,.81,0,1.22-.41,1.88-.82,3.76.59,5.44l-1.21.61C70.09,131.24,70.08,132.54,69.64,133.18Z"/><path class="cls-80" d="M29.63,22.45a2.82,2.82,0,0,1,.1-.58c2.06.1,3.17-1.64,4.76-2.44a3.66,3.66,0,0,1,1.18-1,14.85,14.85,0,0,1,1.46-.67c2.15-1.06,4.24-1.41,6.15.49.22.45.51.72,1,.38a1.25,1.25,0,0,1,1.13.79l1.17.66c-1.39,6.57-1,13.17-.47,19.79.18,2.47.65,5-.49,7.44a3.25,3.25,0,0,1-2.49.77c-3.66-.08-7.3.22-10.95.33a1.76,1.76,0,0,1-.78-.62.75.75,0,0,1,.25-.85c1.92-1.79,2.09-5.73.32-8.28a5.64,5.64,0,0,1-.63-.66,4.62,4.62,0,0,1-1.08-1.6C29.61,31.77,30.32,27.08,29.63,22.45Z"/><path class="cls-81" d="M45.41,47.27c.06-7.57-1-15.12-.65-22.71.08-1.8.36-3.34,1.84-4.48l.57,0c1.26.85,3.31.86,3.29,3.07-.91,3.15-.43,6.37-.55,9.55a11.93,11.93,0,0,1-.37,3.86A5.41,5.41,0,0,1,48.39,38c-1.82,3-1.22,6,.15,8.94a1.41,1.41,0,0,1,.06.86,1.77,1.77,0,0,1-1.57.63,2.76,2.76,0,0,1-.85-.19A1.37,1.37,0,0,1,45.41,47.27Z"/><path class="cls-82" d="M45.43,19.42l-1.21-.6c.28-1.64,1.65-1.19,2.67-1.39,2.61-.32,3.59-1.57,3.7-4.73.12-3.33-2.51-7.25-5.54-8.24C41,3.11,37.38,4.13,35.1,7.29a8,8,0,0,0,.16,10.22c.32.4.67.76.46,1.33a1.21,1.21,0,0,1-1.23.59c-5.63-1.7-4.24-12.29,0-15.37C38.29,1.28,42.36.29,46.62,2.32c3.87,1.83,6,5.34,6.55,9.53a8.32,8.32,0,0,1-1.47,5.72c-.93,1.4-2.15,2.42-4.07,1.51A1.67,1.67,0,0,0,45.43,19.42Z"/><path class="cls-83" d="M50.23,22.51c-1-.87-2.34-1.26-3.06-2.46,2.26,0,4.42,1,6.71.62,0,.4,0,.8,0,1.2,0,.2,0,.41,0,.61a3.4,3.4,0,0,1-2.31.88A1.39,1.39,0,0,1,50.23,22.51Z"/><path class="cls-16" d="M76.3,96.88c-2.31,1.64-.77,4.05-1.21,6.05-.09.84.27,1.79-.6,2.43,0-3.43,0-6.85,0-10.27C72.39,85.62,73,76,72.92,66.43c0-4.81,0-9.62,0-14.43,0-1.39-.12-2.83.7-4.09a2.32,2.32,0,0,1,3.27,0C76.71,64.22,77.42,80.56,76.3,96.88Z"/><path class="cls-84" d="M77.51,42.43a1.23,1.23,0,0,1,.57-1.17c0,2,0,4,0,6-2.54.18-5,1.18-7.62.34-.65-1.85,1-1.7,1.77-1.65C75,46.15,76.73,45.06,77.51,42.43Z"/><path class="cls-85" d="M70.26,47.26H78.1a1.19,1.19,0,0,1-1.2.63h-3a3.47,3.47,0,0,1-3,.68c-.66-.21-1.4-.35-1.31-1.31l0,0C69.85,47,70.05,47,70.26,47.26Z"/><path class="cls-86" d="M10.88,79.94v-.6a2.19,2.19,0,0,1,1.78-2.53,11.7,11.7,0,0,1,3-.24q25.74,0,51.48,0c1.58-.11,1.69,1.07,1.88,2.17a4.09,4.09,0,0,0,.61,2.43,4,4,0,0,1-3.09,1q-26.19.09-52.37,0a5.74,5.74,0,0,1-2.65-.49C10.83,81.26,10.39,80.77,10.88,79.94Z"/><path class="cls-87" d="M10.88,79.94c.49,2,2.11,1.18,3.24,1.18q27.77.07,55.52,0c.71.43.58,1.15.6,1.81-1,1-2.28.58-3.43.58q-28.58,0-57.14,0A5.82,5.82,0,0,1,10.88,79.94Z"/><path class="cls-88" d="M70.85,47.89h3c.27,15.73-.65,31.48.59,47.2-1.17-1.21-.15-3-1.19-4.27-.06-3.12-1.58-6-1.83-9-2.12-4.12-1.61-8.55-1.56-12.93,0-5.65,0-11.29,0-16.94C69.92,50.5,69.81,49.05,70.85,47.89Z"/><path class="cls-89" d="M70.85,47.89c0,7.14,0,14.29,0,21.44,0,4.16-.64,8.34.6,12.44l-1.83-3.63c-1-1.5-2.55-2.75-2.39-4.84-.71-7.85-.24-15.71-.29-23.56a3,3,0,0,1,.89-2.48h1.79A1.31,1.31,0,0,0,70.85,47.89Z"/><path class="cls-87" d="M67.81,73.9c.15,1.61,1.85,2.55,1.81,4.24-.2.19-.39.39-.59.59-.4-.6-.81-1.2-1.21-1.81A2.17,2.17,0,0,1,67,74,.6.6,0,0,1,67.81,73.9Z"/><path class="cls-1" d="M73.28,116.24l-1.22.61v-.61l.6-3.63c0-.8,0-1.61,0-2.41h0a.8.8,0,0,1,1.2,0l-.06,5.42Z"/><path class="cls-90" d="M7.85,47.89h2.43a3.75,3.75,0,0,1,.89,3.06c0,7.79.09,15.59,0,23.38a5.92,5.92,0,0,1-1.45,4.43L7.25,86C8.51,73.31,7.57,60.59,7.85,47.89Z"/><path class="cls-91" d="M7.25,101.73H6l0-6.65c1.91.42.91,2,1.19,3v2.42C7.25,100.92,7.25,101.32,7.25,101.73Z"/><path class="cls-92" d="M68.45,133.28a3,3,0,0,0,0,.52c-.94,2.32-.46,4.49.23,6.85.75,2.56-.65,5.1-1.71,7.42-3.64,8-10.35,12.06-18.58,13.82-11.2,2.41-21.58.8-30.26-7.28-4.58-4.28-6.22-9.75-5.29-15.88a16.31,16.31,0,0,0-.11-3.22l2.38,3.12a5.07,5.07,0,0,1,.92,2.81c.44,7,4,11.87,10.08,15.08,11.46,6.08,26.72,3.72,34.19-4.53,2.61-2.88,4.29-6.07,4.28-10a8.11,8.11,0,0,1,.74-3.51C65.63,136.29,67.46,135,68.45,133.28Z"/><path class="cls-93" d="M65.33,138.47c1.65,10.21-6.17,18.21-15.65,20.82-11,3-21.09,1.67-29.59-6.41a14.81,14.81,0,0,1-4.72-12.47,8,8,0,0,0-.25-1.78,2.07,2.07,0,0,1,1.19,1.3,17.85,17.85,0,0,1,4,6.88c2,5.37,6.72,8.24,12,9.78a27.24,27.24,0,0,0,23.66-3.72,13.47,13.47,0,0,0,5.45-8.06,12.54,12.54,0,0,1,1.54-3.87Z"/><path class="cls-94" d="M62.93,140.94c-.74,2.36-.4,5-1.88,7.19-6,9.05-14.74,11-24.82,10A21.5,21.5,0,0,1,20.36,149c-.29-.41-.77-.79-.84-1.23a16.54,16.54,0,0,0-3.21-7.85L21.2,144c.52.54,1.25.84,1.68,1.49,3.23,6.6,9,9.15,15.87,9.87,5.72.6,10.7-1.27,15.34-4.41a10.09,10.09,0,0,0,2.82-3.48c.89-1.45,1.53-3.08,3-4.09A8.33,8.33,0,0,1,62.93,140.94Z"/><path class="cls-95" d="M59.93,143.4a20.63,20.63,0,0,0-1.23,2.38c-1.93,5.13-6.13,7.41-10.93,9.27-6,2.31-11.77,1.35-17.2-.9-3.73-1.55-7.38-4.14-8.18-8.86a5.54,5.54,0,0,1,3.54,1.57c5.79,6.7,13,8.24,21.19,5.55,3.09-1,5.84-2.65,7.48-5.65a1.82,1.82,0,0,1,.68-.51,8,8,0,0,0,2.82-1.67A2.43,2.43,0,0,1,59.93,143.4Z"/><path class="cls-96" d="M55.71,146.49H55.1c-5.9,5.85-12.7,8.6-20.94,5.78-3.24-1.1-5.58-3.85-8.74-5.18-.79-1-2-1.21-3-1.81A2,2,0,0,1,21.2,144c5,2.3,10.06,4.15,15.72,4.47a42.21,42.21,0,0,0,17.29-2.39,9.1,9.1,0,0,1,1.47-.29c.19.14.26.29.2.45S55.77,146.49,55.71,146.49Z"/><path class="cls-97" d="M55.71,146.49l0-.68a4.4,4.4,0,0,1,2.42-1.23C57.77,145.79,56.6,146,55.71,146.49Z"/><path class="cls-98" d="M73.87,110.2h-1.2c0-.81,0-1.62,0-2.43,1.08-1.21,0-3,1.2-4.22,0,1.63.06,3.25.08,4.88C73.92,109,73.89,109.61,73.87,110.2Z"/><path class="cls-99" d="M67.81,73.9h-.59c-1.62-1.3-2.82-2.82-2.74-5,0-8.75,0-17.5,0-26.25a15,15,0,0,1,.2-3.6,2.4,2.4,0,0,1,.88-1.38,1,1,0,0,1,1-.06c1.43.21,1.21,1.32,1.21,2.28,0,2.47,0,4.94,0,7.41.19,8.72-.45,17.46.33,26.19C68.17,73.59,67.93,73.75,67.81,73.9Z"/><path class="cls-100" d="M66.61,37.57l-.63.06c-1.33.72-2.67,1.09-4.08.21.51-2.72-.77-5.81,1.67-8.13l1.83-1.79,1.21-.61Z"/><path class="cls-101" d="M70.26,47.26l-.6,0,.06-1.84c.33-.33.09-.91.53-1.18,2.68.43,4.77-1.5,7.26-1.83,0,4.22,0,4.19-4.13,4.26C72.32,46.71,71.15,46.29,70.26,47.26Z"/><path class="cls-102" d="M70.25,44.26c-.18.39-.36.79-.53,1.18,0-1.22,0-2.43,0-3.65a5.4,5.4,0,0,1,6.93-2.91c.4.16.7.37.72.83a.88.88,0,0,1-.68.86,40.69,40.69,0,0,1-4.76,1.75C70.72,42.6,70.11,43,70.25,44.26Z"/><path class="cls-103" d="M24.21,190.66A1.1,1.1,0,0,0,23,191.87a21.46,21.46,0,0,1-7.29-9.35c-1.54-3.94-.73-7.52.9-11.23.75-1.71,1.29-2.95,3.39-2.39.52.59,1.49,0,1.95.7.1,1.09-.6,1.88-1.06,2.76-2.23,4.26-2.34,8.38.49,12.49a32.25,32.25,0,0,1,2.83,4.6Z"/><path class="cls-104" d="M21.79,169.49c-.65,0-1.36.12-1.79-.59h4.82c0,.2,0,.39,0,.58l-.3.31a2.77,2.77,0,0,1-1.65.3A1.76,1.76,0,0,1,21.79,169.49Z"/><path class="cls-103" d="M57.52,192.47c-.71-.43-.58-1.15-.6-1.81-.35-1.61,1-2.31,1.83-3.19,5.48-5.72,6-8.71,2.76-15.83-.55-1.21-.91-2.28.84-2.75,2.56-.67,2.7,1.16,3.76,2.87C71,179.72,64.6,189.29,57.52,192.47Z"/><path class="cls-105" d="M62.35,168.89c-1,.79-.75,1.55-.16,2.54,3.52,5.88,2.84,10.79-2,15.69-1.13,1.14-2.17,2.36-3.25,3.54H55.7c-.84-1-.35-1.88.21-2.73s1-1.51,1.42-2.3c2.29-4.26,3.32-8.53.73-13.12-.78-1.37-1.65-3.28,1.26-3.61Z"/><path class="cls-106" d="M52.1,169.48a11.33,11.33,0,0,1,4.8-.58,5.29,5.29,0,0,0,.79,3c1.92,3.75,2.34,7.61.31,11.5-1.91,2.72-3.78,5.48-7.15,6.63-1.18.16-2.33.87-3.54.16-.37-1.7,1.2-1.77,2.06-2.4,3.24-2.34,6.1-4.91,6.18-9.33a9,9,0,0,0-2.21-6.36A4.33,4.33,0,0,1,52,169.9Z"/><path class="cls-107" d="M57.52,183.4c1.48-4.49,1.66-8.85-1.57-12.73-1.32-1.59,1-1,.95-1.77h2.42c-.84.6-2,1-.92,2.41.23.29.2.78.4,1.12,3.53,5.86.93,10.88-2.22,15.78a3.9,3.9,0,0,0-.88,2.45l-1.81,1.21H52.07c-.31-1.83.88-3,2-4.06A17.57,17.57,0,0,0,57.52,183.4Z"/><path class="cls-108" d="M46.6,168.9l3.07,0,1.14-.07c.51.08,1,.15,1.29.68h-.05a3.68,3.68,0,0,1-2.83.82,4.47,4.47,0,0,1-2.43-.51A.65.65,0,0,1,46.6,168.9Z"/><path class="cls-109" d="M29.63,22.45A3.56,3.56,0,0,1,30.9,25.6c-.08,3.78,0,7.57,0,11.36-1.3,1.1-2.57.23-3.85-.06a1.91,1.91,0,0,1-.75-.66c-.9-2.3-.36-4.71-.5-7.06A11.74,11.74,0,0,0,25.29,26c-.38-1.66,1.23-1.6,2-2.26a1.92,1.92,0,0,0,1.78-1.22A5.12,5.12,0,0,0,29.63,22.45Z"/><path class="cls-110" d="M27.29,23.7l-1.86,1.81C25.06,26.6,24,27,23.21,27.61c-.67.4-1.3.84-1.95,1.27-.6.27-1.18.65-1.87.24,0-.8,0-1.6,0-2.4C21.93,25.55,24.29,23.8,27.29,23.7Z"/><path class="cls-111" d="M47.23,190.05l3.63-.6c-.62,2.54-3.43,2.6-4.85,4.23-4.56.95-9,.18-13.32-1.21-.87-.81-1.91-1.43-2.75-2.27-.57-.58-1.54-1.13-.69-2.19,2.17-.55,3.85,1.24,5.9,1.24,3.15.81,6.35.57,9.53.4C45.58,189.61,46.46,189.37,47.23,190.05Z"/><path class="cls-104" d="M29.06,188.24c.65,1.89,3.53,1.87,3.63,4.23h-3l-3-2.42a24.92,24.92,0,0,1-4.26-8.17c-1.41-4.6-.27-8.63,2.44-12.39l0,0,2.4,0c.38.88-.21,1.52-.57,2.2-3.17,6-2.81,9.45,1.54,14.79C28.62,187,29.33,187.38,29.06,188.24Z"/><path class="cls-112" d="M46,193.68c.86-2.28,3.4-2.64,4.85-4.23,3-1.16,4.45-4,6.66-6-.78,3.49-4.41,5.15-5.45,8.47a6,6,0,0,1-3,1.21Z"/><path class="cls-113" d="M17.54,30.35l1.22-.67a5.8,5.8,0,0,0,.59,0c1.25,1.3.78,3,.86,4.47.06,1.27.32,2.12,1.82,1.94,1.36.16,2.82-.16,4,.8a.79.79,0,0,1-.21,1,12.5,12.5,0,0,1-7.79,0C16,35.52,16.21,33,17.54,30.35Z"/><path class="cls-114" d="M21.79,37c-1.72.21-2.59-.38-2.45-2.28.12-1.67,0-3.35,0-5a3.43,3.43,0,0,1,0-.56l1.79-.6C22.69,31.25,22.15,34.12,21.79,37Z"/><path class="cls-115" d="M9.12,38.18V20.44l1.16,1.43.11.62a15.69,15.69,0,0,1,3.55,4.81c0,.18,0,.36,0,.53a25.88,25.88,0,0,1-.17,9.69c-1.12,1.6-.8,3.43-.85,5.2A18.81,18.81,0,0,1,12.78,46c-.15.69-.38,1.42-1.23,1.49s-.9-.88-1.23-1.43l-.05,0c0-.81,0-1.61,0-2.42a3,3,0,0,1-.65-1.33A2.62,2.62,0,0,1,10.26,40C10.33,39.11,10.38,38.24,9.12,38.18Z"/><path class="cls-116" d="M13.31,37.58c.17-3.25-.48-6.56.64-9.75,1.61.26,2.27,1.86,3.59,2.52.25,2.4-.56,4.89.61,7.21-1.18,1.16-2.59.85-4,.63A1.86,1.86,0,0,1,13.31,37.58Z"/><path class="cls-117" d="M13.94,27.3a19,19,0,0,1-3.55-4.81A5.79,5.79,0,0,1,13.94,27.3Z"/><path class="cls-118" d="M51.45,23.09c.64-.9,1.59-.54,2.44-.61,1.41,1.25,3.33,1.06,5,1.74,1,.41,2.17.52,2.34,1.9a5.21,5.21,0,0,1-.65,3c-.51.29-.93,0-1.36-.2s-.82-.48-1.22-.73a8.23,8.23,0,0,0-1.52-.88,8.38,8.38,0,0,1-1.79-1.23c-.52-.34-1.1-.6-1.63-.93C52.39,24.54,51.26,24.31,51.45,23.09Z"/><path class="cls-119" d="M59.35,28.51l1.18.61h.62c0,.2,0,.4,0,.6,1.55,3.31,1.25,6-.86,7.77a2.08,2.08,0,0,1-1.62-.39C58.57,34.22,57.82,31.28,59.35,28.51Z"/><path class="cls-120" d="M60,37c1.8-.35,1.11-1.8,1.18-2.85.1-1.47,0-2.94,0-4.41l2.41,0C62.7,31.18,63,32.82,63,34.4a3.34,3.34,0,0,1-1.23,3.15,1.31,1.31,0,0,1-1.72.26A.55.55,0,0,1,60,37Z"/><path class="cls-121" d="M10.26,40v2.44c-2.9.6-5.32-.85-7.85-1.82.05-.58-.09-1.51.55-1.55C5.44,38.92,8.07,37.88,10.26,40Z"/><path class="cls-122" d="M2.42,40.62a34.17,34.17,0,0,1,7.85,1.82c0,.4,0,.81,0,1.21A10.5,10.5,0,0,1,2.42,40.62Z"/><path class="cls-123" d="M21.79,169.49H23c1,1,.34,2.13,0,3.09a15.76,15.76,0,0,0,.39,12.24c.51,1.25,1.21,2.55.87,4v.61C18,183.52,16.15,177.25,21.79,169.49Z"/><path class="cls-124" d="M24.21,188.84c-2.53-5.17-4.12-10.44-2-16.19a23.44,23.44,0,0,0,.74-3.16h1.82c.35,1.46-.79,2.45-1.27,3.59-2.22,5.23-.39,9.77,2.08,14.24.48.88,1.17,1.64,1,2.73Z"/><path class="cls-125" d="M13.31,37.58l.63.07a1.17,1.17,0,0,1,0,1,117.13,117.13,0,0,0-.88,12.82c-.27,6.48-.27,13,.07,19.5.08,1.39-.57,2.51-.8,3.77a6.59,6.59,0,0,1-2.08,4h-.6c1.3-10.27.27-20.58.6-30.87l0-.65c-.2-.11-.27-.23-.21-.35s.11-.2.17-.2c0-.21.08-.42.11-.63.88.92,1.76,1.82,1.78-.47,0-1.89,0-3.78,0-5.68C12.13,39,11.85,37.81,13.31,37.58Z"/><path class="cls-87" d="M10.28,78.74l1.22-3.61c.37-.49.67-1.14,1.43-.49.61,1.22,0,2.09-.83,2.89l-1.22,1.81Z"/><path class="cls-126" d="M10.21,46.68a2.59,2.59,0,0,1,0,.55l-7.85,0c.09-.44,0-1.39.5-1.14C5.28,47.34,7.8,46.32,10.21,46.68Z"/><path class="cls-127" d="M29.06,188.24c-5.36-4.52-7.65-11.5-1.83-18.75h1.23a1.07,1.07,0,0,1,1.28-.09c.32,1-.32,1.71-.76,2.48-3.82,6.67-2.84,11,3.45,15.63.9.65,2.34.94,2.08,2.55Z"/><path class="cls-128" d="M46.6,168.9c0,.2,0,.39,0,.58a2.14,2.14,0,0,1-.89.62c-3,.49-6,.08-9.07.28-1.19-.11-2.39,0-3.59-.12a3,3,0,0,1-1.43-.48.62.62,0,0,1-.15-.88Z"/><path class="cls-108" d="M31.49,168.9c0,.19,0,.38,0,.58a1.28,1.28,0,0,1-1.83,0H28.46C29.32,168.48,30.47,169,31.49,168.9Z"/><path class="cls-129" d="M43.6,18.85a6.86,6.86,0,0,0-6.67-.61c0-.13-.09-.26-.14-.4s0-.57.07-.86c-2.13-4.55-1.68-7.58,1.46-9.91a6.62,6.62,0,0,1,8.06.55,6.5,6.5,0,0,1,1.46,7.93,3.52,3.52,0,0,1-3.08,2.06A3,3,0,0,1,42,16.38C42.71,17.42,44.08,17.62,43.6,18.85Z"/><path class="cls-130" d="M35.72,18.84C31.82,16.42,32,12.39,33.23,9a9,9,0,0,1,10.4-5.73,9.53,9.53,0,0,1,6.95,13.17,2.84,2.84,0,0,1-3.35,1.85.6.6,0,0,1-.17-.52c0-.18.07-.27.11-.27a3.2,3.2,0,0,1,.63-.59,7.16,7.16,0,0,0-.22-9.53C45.52,5,40.88,4.22,38.22,5.85a7.71,7.71,0,0,0-3.57,9.28c.47,1.32,1.89,1.81,2.27,3.11h0A1.26,1.26,0,0,1,35.72,18.84Z"/><path class="cls-131" d="M32.09,38.15a1.66,1.66,0,0,1,1.73,1.69c0,2.09,0,4.18,0,6.27,0,1.13-.87,1.15-1.71,1.14A10.88,10.88,0,0,1,32.09,38.15Z"/><path class="cls-132" d="M45.41,47.27l.61.61c-1.53,1.36-3.41.67-5.14.82a15.59,15.59,0,0,0-3.54.3,9.52,9.52,0,0,1-2,.26A10.24,10.24,0,0,1,32,49a1.32,1.32,0,0,1-.67-.65l.15-.45C36.09,47.08,40.76,47.32,45.41,47.27Z"/><path class="cls-133" d="M31.5,47.25l0,.63h0c-2.29-.83-1.09-2.83-1.43-4.32s.7-3.37-1.68-3.9A3.28,3.28,0,0,1,26,38.77a.6.6,0,0,1,.33-.87,5.9,5.9,0,0,1,5.3.35A41.67,41.67,0,0,1,31.5,47.25Z"/><path class="cls-134" d="M31.5,47.25q0-4.52-.05-9a.52.52,0,0,1-.19-.44c0-.17,0-.26.07-.26a.48.48,0,0,1,.68.07,3.31,3.31,0,0,1,.08.55v9.1l-.29,0Z"/><path class="cls-135" d="M47.23,17.63v.61c-1,.15-2.16-.41-3,.58-.19.38-.4.47-.62,0l-1.92-2.22c.92-.49,1.64.52,2.52.4C45.08,17.87,46.37,16.66,47.23,17.63Z"/><path class="cls-136" d="M32,37.6h-.45a10.66,10.66,0,0,1-5.55,0c0-.19,0-.37,0-.56.27-.48.9-.2,1.22-.59l3.64.55C31.34,37,31.8,37.09,32,37.6Z"/><path class="cls-132" d="M46.62,47.9l1.81,0c0-3.27-.93-6.58.45-9.79A3.15,3.15,0,0,1,52.63,38c-.39,7.07-.22,14.15-.24,21.23a1.75,1.75,0,0,1-.64,1.6,2.23,2.23,0,0,1-2.1,0c-1.59-1.34-1.5-3.22-1.44-5C48.31,53.08,48.17,50.36,46.62,47.9Z"/><path class="cls-137" d="M51.45,23.09l1.88,1.78a42.2,42.2,0,0,1-.11,11c-.47,1.07-1.49,1.19-2.45,1.44a2.21,2.21,0,0,1-1.39,0L49,37c0-3.77,0-7.54,0-11.3a3.43,3.43,0,0,1,1.22-3.14Z"/><path class="cls-138" d="M46.62,47.9c2.06.77,2.58,2.23,2.48,4.37-.12,2.73-.45,5.54.54,8.22-1.65.56-3.14.53-4.16-1.15A18.08,18.08,0,0,1,45.14,54c0-4.55,0-4.55-4.65-4.65-1.26,0-2.55.14-3.56-.86,3-1.33,6.07-.26,9.09-.61Z"/><path class="cls-139" d="M48.43,47.28c-2.3-1.86-2.63-7.22-.59-9.67.79-.12.88.4.89,1C48.56,41.49,49.11,44.4,48.43,47.28Z"/><path class="cls-140" d="M48.53,38.26l-.69-.65A1.28,1.28,0,0,1,49,37l0,.06c1.59.45,3.14-.14,4.71-.22a13.69,13.69,0,0,1,6.18.78l1.82,0,4.21.08-.58.57a2.73,2.73,0,0,1-1.73.73c-.48,0-1,.06-1.44.07-.33,0-.66,0-1,0-1.51,0-3,0-4.53,0s-2.88.33-4.05-.81l-3.6,0C48.88,38.51,48.7,38.49,48.53,38.26Z"/><path class="cls-141" d="M48.53,38.26a2.35,2.35,0,0,1,.53,0c-.35,3.2.68,6.48-.63,9.62q0-.3,0-.6Q48.48,42.77,48.53,38.26Z"/><path class="cls-142" d="M12.1,77.53l.6-3c-.65-1.64.72-2.61,1.27-3.86.93-1.11,1.55-2.55,3.11-3a.88.88,0,0,1,.76.43c.72,2.3-1.62,3.16-2.26,4.81-.19,1.3.84,1.28,1.56,1.28,15.32.13,30.64.08,46,0,.69,0,1.79.11,1.5-1.24-.5-1.73-3-2.66-2-5a.87.87,0,0,1,1.16,0,3,3,0,0,1,1,1.73c.74,1.45,2.14,2.52,2.43,4.24l.6,3c-1,1-2.28.58-3.44.59Q38.24,77.56,12.1,77.53Z"/><path class="cls-97" d="M25.42,147.1a9.09,9.09,0,0,1,5.46,2.21c6.18,4.67,13.88,4.38,20-.64a22.18,22.18,0,0,1,4.23-2.17c.24,1.81-1.09,2.75-2.22,3.66C45.39,156.17,31.79,156.46,25.42,147.1Z"/><path class="cls-143" d="M64.79,69.66a2,2,0,0,1-1.19-1.22,16,16,0,0,1-.9-5.83c.06-6.8,0-13.6,0-20.4,0-1.39-.22-2.84.84-4H65.4c0,9.45,0,18.9,0,28.34C65.37,67.6,65.78,68.78,64.79,69.66Z"/><path class="cls-144" d="M29.65,169.49h3c.31,1.8-1.25,2.64-2.08,3.81-2.93,4.15-2.34,8.61,1.68,11.71,7,5.4,15.3,4,20.37-3.52,1.35-3.81.79-7.12-2.45-9.78-.67-.55-1.52-1.1-1.15-2.22l3,0c1.92,2.3,4,4.4,4.3,7.72.41,5.36-2.6,8.57-6.59,11.28-.82.56-1.69,1.06-2.53,1.58a30.63,30.63,0,0,1-12.72,0c-1.55-1.83-3.86-2.69-5.5-4.49a10.6,10.6,0,0,1-1.53-12.85C28.15,171.6,28.92,170.56,29.65,169.49Z"/><path class="cls-145" d="M49.05,169.49c.58,1.52,2.4,1.73,3.21,3,1.82,2.85,2.76,5.84,1,9.1-1,.86-1.27,2.8-3.26,2.22,0-2.09,1.55-3.75,1.38-6a6.41,6.41,0,0,0-2.55-5.11c-1.12-.87-2.79-1.35-2.84-3.2h3Z"/><path class="cls-146" d="M23,27.31c.47-1.07,1.54-1.32,2.44-1.8,1.48.18,1.19,1.33,1.2,2.27,0,2.87,0,5.74,0,8.6-3.33.53-3.8.24-3.9-2.85C22.66,31.46,22.39,29.36,23,27.31Z"/><path class="cls-147" d="M23,27.31c1.26,1.93.62,4.1.54,6.12-.1,2.45.79,3.3,3.1,3l.61,0A1.33,1.33,0,0,1,26,37H21.79c-1.22-2.75-.34-5.65-.61-8.47A1.85,1.85,0,0,1,23,27.31Z"/><path class="cls-148" d="M26,37.56l5.55,0c0,.21-.07.42-.11.64H26c-.83.83-1.91.74-2.95.79h-4c-.65,0-1.31,0-2,0a8.79,8.79,0,0,1-2.4-.25,1.69,1.69,0,0,1-.78-.56c0-.18,0-.37,0-.55l4.21-.09Z"/><path class="cls-149" d="M52.68,36.38c.37-3.83-.77-7.74.65-11.51l1.77.68a17,17,0,0,1,.25,10.79A1.89,1.89,0,0,1,52.68,36.38Z"/><path class="cls-150" d="M55.1,36.38V25.55c.64.35.9,1.26,1.81,1.2a14.36,14.36,0,0,1,.28,9.53A1.44,1.44,0,0,1,55.1,36.38Z"/><path class="cls-151" d="M55.1,36.38h1.81c1.1-1.51.42-3.25.62-4.87.15-1.22-.41-2.57.62-3.65a1.38,1.38,0,0,1,1.2.64c-.29,2.82.61,5.73-.62,8.48a24.34,24.34,0,0,1-8.47,0c.64-.87,1.59-.49,2.42-.6Z"/><path class="cls-152" d="M58.15,27.87c0,2.08,0,4.16,0,6.23,0,.95.26,2.09-1.21,2.29V26.75Z"/><path class="cls-153" d="M50.26,37H60v.58c-3.62-.27-7.32.69-10.89-.56Z"/><path class="cls-154" d="M13.92,38.2h.6c1,1.16.94,2.6.94,4,0,7.9,0,15.81,0,23.71a14.94,14.94,0,0,1-1,5c-.66,1.18-1.75,2.15-1.82,3.63l-1.2.63c1.26-3.66.62-7.44.54-11.15-.16-7.93.49-15.83.66-23.75C12.72,39.31,12.64,38.35,13.92,38.2Z"/><path class="cls-108" d="M46,169.48c.69.58,1.36,1.18,2.06,1.74,4.85,3.81,5.4,6.78,2.28,12.19a1.92,1.92,0,0,0-.1.59c-.74,2.25-2.94,2.89-4.7,3.32-4.78,1.16-9.53,1.12-13.53-2.55-2.51-2.3-3.62-5.12-2.83-8.37a8.16,8.16,0,0,1,6.05-6.4,3.45,3.45,0,0,0,1.08-.51Z"/><path class="cls-155" d="M36.32,169.49c-.89,1.57-2.72,1.85-4,2.95-4.26,3.61-3.28,10.47,2.2,13.23s10.82,2,15.74-1.67l3-2.42c-3.45,7.23-12.41,9-18.19,6.15-2.34-1.15-4.77-2.53-6.05-5.19-2-4.17-1-7.72,1.9-11,.6-.67,1.16-1.37,1.74-2.06Z"/><path class="cls-156" d="M47.23,17.63c-1-.15-2.18.4-3-.6,2.8-.07,3.46-2,3.62-4.27C48,9.84,46.47,8,43.89,7a5.6,5.6,0,0,0-7,2.66c-1.07,2.17-1.48,4.69.83,6.55,1,.81.46,1.07-.23,1.44-3.69-1.06-4.89-6.21-2.23-9.51,3.2-4,7.71-4.74,11.42-2,3.55,2.66,4,7.21,1.11,11.48Z"/><path class="cls-157" d="M45.42,12.55c.12,2.31-1.05,3.36-3.45,3.28s-3.62-1.1-3.79-3.35C38,10.72,40.6,8.36,42.42,8.63,44.49,8.93,45.47,10.34,45.42,12.55Z"/><path class="cls-135" d="M47.83,17.63c.46-2.1,1.56-4,1.33-6.35-.44-4.64-5.73-7.06-8.7-6.24a8.15,8.15,0,0,0-5.82,9.79c.44,1.61,1.81,2,2.89,2.79l-.61.62c-3-.9-3.55-3.42-3.55-6,0-3.42,2.14-5.76,4.93-7.38S45.83,4.26,48,6.62a8.55,8.55,0,0,1,1.22,10A1.69,1.69,0,0,1,47.83,17.63Z"/><path class="cls-158" d="M36.93,48.49h3.63a3.18,3.18,0,0,1,.83,2.16,33.13,33.13,0,0,0,.88,8.93c-2.47,1.15-5.06.53-7.61.52-.64-.23-1.66-.45-1.28-1.26,1.32-2.84.55-5.86,1-8.77a3.06,3.06,0,0,1,.75-1.58Z"/><path class="cls-159" d="M28.45,38.81c1.79-.23,2.44.47,2.48,2.34.06,2.24-.74,4.59.54,6.73,0,.21,0,.41,0,.61C33,52,32.65,55.51,31.69,59a3.4,3.4,0,0,0-.12,1.37c-.79,1.07-1.85,1-3,.72s-1.13-1.3-1.12-2.21c0-5.77,0-11.55.05-17.32A4,4,0,0,1,28.45,38.81Z"/><path class="cls-160" d="M31.53,60c-1.24-.93.11-1.88,0-2.86-.23-2.87-.08-5.77-.08-8.66h3.63c0,2.61,0,5.23,0,7.85,0,.95.29,2-1,2.53-.51.22.26.41.53.55C33.87,61.2,32.74,60.78,31.53,60Z"/><path class="cls-161" d="M28.45,38.81c-.06,7-.1,13.92-.19,20.89,0,.71.35.81.85.92-.6,1.76-2,1.78-3.51,1.64-.38-.15-.87-.37-.83-.75.83-6.85.09-13.73.41-20.59a3.84,3.84,0,0,1,.46-1.72l.39-.4Z"/><path class="cls-161" d="M23,38.23h3c0,.19,0,.38,0,.56h0a2.12,2.12,0,0,1-1.6.62A2.22,2.22,0,0,1,23.18,39a.66.66,0,0,1-.22-.5C23,38.32,23,38.23,23,38.23Z"/><path class="cls-162" d="M26,61.8a7.12,7.12,0,0,0,3.08-1.18c.85,0,1.74.08,2.42-.61,1-.09,2.15.17,3.06-.59l7.75-.15a2.62,2.62,0,0,1,3.64.21l3.66,1,1.73.18c1.05.16,2.18,0,3.12.65.81.43,1.63.84,2.45,1.24a20.29,20.29,0,0,1,2,1.19c.6.44,1.26.81,1.83,1.29s.88.85,1.31,1.29A2.68,2.68,0,0,1,63,67.88c-.73,2,1.67,2.6,1.82,4.2-.75,2.06-2.59,1.54-4.05,1.55-10,.08-20.09,0-30.13,0-4,0-8,.09-12,0-1.27-.05-3,.42-3.45-1.54.67-1.49,2.77-2.17,2.42-4.24-.35-.59,0-1,.33-1.45.74-.74,1.69-1.22,2.45-1.93a11.91,11.91,0,0,1,1.94-1.22c.8-.37,1.57-.79,2.39-1.1C25.11,62.05,25.64,62.22,26,61.8Z"/><path class="cls-141" d="M54.45,61.84l-3.08-1.17c0-6.33.08-12.66.08-19,0-1.32-.05-2.6,1.21-3.45l4.25,0a.76.76,0,0,1-.12,1c-1.48,1-1.37,2.58-1.38,4.06,0,5.31,0,10.62,0,15.93C55.37,60.08,56,61.39,54.45,61.84Z"/><path class="cls-163" d="M46,59.48l-3.63-.21a2.67,2.67,0,0,1-1.83-3c.16-2.6,0-5.21,0-7.81,5.45,0,5.46,0,5.45,5.31C46,55.69,46,57.58,46,59.48Z"/><path class="cls-164" d="M56.91,38.8a5.8,5.8,0,0,0,0-.59h4.84c.18.56-.17.85-.58,1.12a4.91,4.91,0,0,0-1.2.77c-.83,2.67-.31,5.4-.37,8.1-.09,4.53,0,9.07-.06,13.6,0,.82.79,2.09-.82,2.43l-1.86-1.17a2.76,2.76,0,0,1-.38-.82,122.55,122.55,0,0,1-.17-22.42A2,2,0,0,1,56.91,38.8Z"/><path class="cls-165" d="M63,67.88l-1.21-1.24c-.52-8.73-.17-17.46-.19-26.19a4.29,4.29,0,0,1,.8-2.25h1.21c0,8.54.06,17.09-.06,25.63,0,1.54.81,3.07.08,4.61Z"/><path class="cls-166" d="M62.37,38.2c0,8.44,0,16.88,0,25.32,0,1,.4,2.23-.59,3.12l-1.25-1.18c0-.56-.15-1.11-.18-1.67-.06-7.09,0-14.19,0-21.29,0-1.28-.14-2.62.85-3.69l.59-.6Z"/><path class="cls-167" d="M15.12,72.08c.79.92,1.87.59,2.83.59q22,0,44,0c1,0,2,.33,2.82-.59a2.28,2.28,0,0,1,1.5,2.39c-.26,1.11-1.54.61-2.37.62q-23.7,0-47.4,0c-.84,0-2,.43-2.4-.67C13.79,73.51,14.4,72.7,15.12,72.08Z"/><path class="cls-168" d="M14.52,70.87V38.2h2.42c1,1.07.9,2.39.9,3.69,0,7.21,0,14.41,0,21.61A9.81,9.81,0,0,1,17,67.87Z"/><path class="cls-169" d="M17,67.87q0-14.84,0-29.67h1.84a4.07,4.07,0,0,1,.59.95c.6,8.09.17,16.18.24,24.27,0,1.31-.88,2.19-1.41,3.24l-.66,1.17Z"/><path class="cls-170" d="M18.77,38.8c0-.2,0-.39,0-.59l4.23,0c0,.19,0,.38,0,.57l-.28.3a2.93,2.93,0,0,1-1.19.35,7.58,7.58,0,0,1-1.26,0A2.13,2.13,0,0,1,18.77,38.8Z"/><path class="cls-171" d="M41.14,185.21a10.22,10.22,0,0,1-5.87-1.15c-3.93-2.06-4.76-6.71-1.84-10.16,3.33-3.94,10.87-4.25,14.77-.78,2.27,2,3.52,4.52,2.43,7.22a8.09,8.09,0,0,1-6.8,4.85A23.48,23.48,0,0,1,41.14,185.21Z"/><path class="cls-172" d="M26,61.8l-1.2.61c-.93.51-1.4,0-1.4-.83,0-7.24-.33-14.5.17-21.74a2,2,0,0,1,.61-1H26c0,6.5-.08,13,.08,19.51C26.13,59.49,25,60.64,26,61.8Z"/><path class="cls-170" d="M24.21,38.81c-.05,7.55-.08,15.09-.18,22.64,0,.7.27.86.8,1a4.1,4.1,0,0,1-2.4,1.23c-.87.1-.84-.47-.79-1.06.81-2,.48-4.16.5-6.24,0-4.61,0-9.22,0-13.82,0-1.29-.15-2.63.84-3.71h1.21Z"/><path class="cls-173" d="M55.1,63.61c1.35.86,2.74,1.66,4,2.58.54.38,1.29.9,1.08,1.66s-1.17.58-1.82.59c-3.92,0-7.85,0-11.77,0-8.24,0-16.49,0-24.74,0-.74,0-1.82.43-2.15-.51s.79-1.25,1.42-1.61c1.46-.84,2.48-2.36,4.25-2.7,8.41.62,16.84.17,25.25.25C52.14,63.87,53.67,64.43,55.1,63.61Z"/><path class="cls-174" d="M55.1,63.61C54.45,65,53.17,64.82,52,64.82H28.53c-1.19,0-2.46.2-3.11-1.21,9.24-4.19,18.57-4.23,28-.56C54,63.27,54.53,63.43,55.1,63.61Z"/><path class="cls-175" d="M56.91,38.8q0,12.14,0,24.26a4.2,4.2,0,0,1-2.41-1.22c0-6.79.08-13.58,0-20.37C54.44,39.65,54.79,38.5,56.91,38.8Z"/><path class="cls-176" d="M18.77,38.8h1.8a3.81,3.81,0,0,1,.84,2.79q0,9.74,0,19.47a9.66,9.66,0,0,1-.79,3.78c-.51,1-1.56,1.29-2.42,1.82,1.17-7.36.3-14.78.55-22.18C18.81,42.6,18.76,40.7,18.77,38.8Z"/><path class="cls-177" d="M61.15,64.82l-.64.64-1.79-1.23c0-7.5,0-15,0-22.49,0-1.06-.66-2.55,1.19-2.93.85,1,.58,2.3.59,3.49,0,6.34,0,12.68,0,19C60.56,62.51,60.4,63.75,61.15,64.82Z"/><path class="cls-178" d="M20.62,64.85q0-13-.05-26h1.22a99,99,0,0,1,0,24.2l.64.63Z"/><path class="cls-179" d="M61.15,64.82C59.6,64.09,60,62.66,60,61.4q0-11.3,0-22.59h1.21Q61.16,51.82,61.15,64.82Z"/><path class="cls-180" d="M21.79,63V38.81H23c0,6.92,0,13.85,0,20.78C23,60.85,23.35,62.27,21.79,63Z"/><path class="cls-181" d="M41.47,184c-2.38.05-4.2-.24-5.79-1.53-2-1.61-3.1-3.53-2.15-6.05a5.74,5.74,0,0,1,5.51-4c2.08-.1,4.08-.5,6.13.46s3.66,1.93,3.9,4.43a5.23,5.23,0,0,1-3.33,5.8A7.18,7.18,0,0,1,41.47,184Z"/><path class="cls-182" d="M41.09,182.79a6.38,6.38,0,0,1-3.63-.74,4.18,4.18,0,0,1-.89-7c3.2-2.38,7.21-2.74,9.87.59a4.31,4.31,0,0,1,.46,4.52C46.21,182,44.05,182.82,41.09,182.79Z"/><path class="cls-183" d="M40.94,181.58c-1.85.42-3.09-.88-4.06-2.28-1.07-1.55-.92-3.13,1.06-3.91,1.19-.48,2.59-1.1,3.73-.86,1.94.4,4.51.59,4.81,3.29C46.71,179.86,44,181.6,40.94,181.58Z"/></g></g></svg>