<?xml version="1.0" encoding="utf-8"?>
<!-- Generator: Adobe Illustrator 27.0.0, SVG Export Plug-In . SVG Version: 6.00 Build 0)  -->
<svg version="1.1" id="Layer_1" xmlns="http://www.w3.org/2000/svg" xmlns:xlink="http://www.w3.org/1999/xlink" x="0px" y="0px"
	 viewBox="0 0 2048 2048" style="enable-background:new 0 0 2048 2048;" xml:space="preserve">
<style type="text/css">
	.st0{fill:#FAFAFA;}
	.st1{fill:#D2AC8C;}
</style>
<g>
	<g id="DEUS_Logo_White_1_" transform="translate(21208 23781.012)">
		<g id="Lettering_1_" transform="translate(-42738 -33348)">
			<path id="Letters_1_" class="st0" d="M23418.41,10701.03h-214.2l30.17-43.7h184.31l-84.04-104.42
				c-2.72-3.42-4.96-7.21-6.64-11.25c-1.56-3.8-2.52-7.83-2.84-11.92v-0.01c-0.33-4-0.13-8.02,0.58-11.96
				c0.71-3.84,1.95-7.56,3.67-11.06c1.73-3.53,3.91-6.82,6.49-9.78c2.67-3.05,5.71-5.76,9.04-8.07h0.01
				c3.38-2.36,7.11-4.16,11.06-5.32c4.13-1.19,8.4-1.79,12.7-1.79H23578l-30.17,43.7h-179.38l83.62,104.43
				c2.72,3.42,4.96,7.2,6.64,11.24c1.56,3.8,2.52,7.83,2.84,11.92v0.01c0.33,4,0.15,8.03-0.53,11.99
				c-1.37,7.69-4.77,14.88-9.85,20.82c-2.65,3.05-5.66,5.76-8.99,8.06h-0.01c-3.38,2.36-7.11,4.16-11.06,5.32
				C23426.98,10700.42,23422.71,10701.03,23418.41,10701.03z M22793.32,10701.03h-249.24c-5.23,0-10.46-0.52-15.59-1.54
				c-5.05-1.02-9.99-2.57-14.72-4.6c-4.66-2-9.12-4.42-13.33-7.23c-8.23-5.52-15.3-12.59-20.82-20.81
				c-2.81-4.21-5.24-8.68-7.24-13.34c-2.04-4.74-3.58-9.67-4.6-14.72c-1.03-5.19-1.54-10.47-1.53-15.75v-62.89
				c-0.01-5.29,0.51-10.56,1.54-15.75c1.02-5.05,2.56-9.99,4.6-14.73c2.01-4.67,4.43-9.15,7.24-13.39c2.77-4.15,5.91-8.02,9.4-11.59
				c3.48-3.55,7.31-6.74,11.42-9.54c4.2-2.84,8.66-5.28,13.32-7.28c4.74-2.03,9.67-3.57,14.72-4.59c5.13-1.02,10.35-1.53,15.58-1.53
				l249.26,0.4v44.1h-249.45c-18.52,0-33.53,15.01-33.53,33.53c0,0.12,0,0.25,0,0.37v8.97h236.97v44.51h-236.97v9.38
				c-0.21,18.51,14.63,33.69,33.15,33.9c0.12,0,0.25,0,0.37,0h0.38h249.07V10701.03L22793.32,10701.03z M22932.55,10701.03h-0.16
				c-5.23,0-10.46-0.52-15.59-1.54c-5.05-1.02-9.99-2.56-14.72-4.59c-4.65-2-9.12-4.42-13.33-7.24
				c-8.22-5.52-15.3-12.59-20.82-20.82c-2.82-4.21-5.24-8.68-7.24-13.34c-2.04-4.74-3.58-9.67-4.6-14.72
				c-1.03-5.19-1.54-10.47-1.54-15.76v-141.69h44.11v141.68c-0.21,18.51,14.63,33.69,33.14,33.9c0.13,0,0.25,0,0.38,0h156.67
				c4.33,0,8.63-0.84,12.64-2.48l0.04-0.01c4.07-1.72,7.74-4.24,10.79-7.43c3.12-3.13,5.59-6.85,7.26-10.94l0.01-0.03
				c1.64-4.14,2.46-8.56,2.42-13.02v-141.67h44.51v141.7c0.01,5.29-0.51,10.56-1.53,15.74c-1.02,5.05-2.56,9.99-4.6,14.73
				c-2,4.66-4.44,9.12-7.28,13.32c-2.8,4.11-5.99,7.93-9.54,11.42c-3.56,3.49-7.44,6.63-11.59,9.4c-4.24,2.81-8.72,5.24-13.39,7.25
				c-4.71,2.03-9.62,3.57-14.64,4.6c-5.04,1.02-10.17,1.53-15.31,1.53L22932.55,10701.03z M22323.89,10701.03h-280.55l30.16-43.82
				h136.38v-0.29h114.22c18.51,0,33.52-15.01,33.52-33.52c0-0.13,0-0.25,0-0.38v-62.85c0.21-18.52-14.63-33.7-33.15-33.9
				c-0.08,0-0.15,0-0.23,0h-114.37v-0.08h-136.38l-30.17-44.01h31.32v-0.01l249.08-0.41h0.15c5.23,0,10.46,0.52,15.59,1.53
				c5.05,1.02,9.99,2.56,14.73,4.6c4.66,2,9.12,4.44,13.32,7.28c4.11,2.8,7.94,5.99,11.43,9.54c3.49,3.56,6.63,7.44,9.4,11.59
				c2.81,4.24,5.24,8.72,7.25,13.4c2.04,4.74,3.57,9.67,4.59,14.73c1.03,5.19,1.54,10.46,1.53,15.75v62.89
				c0.01,5.29-0.51,10.56-1.54,15.74c-1.02,5.05-2.56,9.99-4.6,14.73c-2,4.66-4.42,9.12-7.23,13.33
				c-5.52,8.22-12.59,15.3-20.82,20.82c-4.21,2.82-8.68,5.24-13.34,7.24c-4.74,2.04-9.68,3.58-14.74,4.6
				C22334.34,10700.51,22329.12,10701.03,22323.89,10701.03L22323.89,10701.03z"/>
			<path id="Accent_1_" class="st1" d="M22401.71,10584.09v14.62l-44.08-0.07v-14.62L22401.71,10584.09z"/>
		</g>
		<g id="Emblem_1_" transform="translate(-20623.848 -23781.012)">
			<g id="Circles_1_" transform="translate(0 0)">
				<path id="Subtraction_165_1_" class="st0" d="M-388.82,1219.53c-13.22,0-26.41-1.33-39.36-3.97
					c-24.99-5.12-48.72-15.1-69.84-29.39c-31.4-21.2-55.99-51.05-70.77-85.94c-4.99-11.82-8.81-24.1-11.38-36.67
					c-5.29-25.98-5.29-52.75,0-78.73c5.12-24.99,15.1-48.72,29.39-69.85c21.2-31.4,51.05-55.99,85.94-70.77
					c11.82-4.99,24.1-8.81,36.67-11.38c25.98-5.29,52.75-5.29,78.73,0c24.98,5.12,48.72,15.1,69.84,29.39
					c31.4,21.2,55.99,51.05,70.77,85.94c5,11.82,8.81,24.1,11.39,36.67c5.29,25.98,5.29,52.75,0,78.73
					c-5.12,24.98-15.1,48.72-29.39,69.84c-21.2,31.4-51.05,55.99-85.94,70.77c-11.82,5-24.1,8.81-36.67,11.39
					C-362.41,1218.2-375.6,1219.53-388.82,1219.53z M-388.77,839.8c-101.58,0-184.21,82.64-184.21,184.21
					s82.63,184.21,184.21,184.21s184.21-82.63,184.21-184.21c0-97.72-76.36-178.52-173.85-183.92
					C-381.83,839.89-385.32,839.8-388.77,839.8z"/>
				<g id="Group_4082_1_" transform="translate(30.077 29.711)">
					<ellipse id="brushed-metal-1_1_" class="st0" cx="-418.9" cy="994.13" rx="165.88" ry="165.88"/>
					<path id="brushed-metal-1_-_Outline_1_" class="st0" d="M-418.9,834.96c-87.77,0-159.17,71.4-159.17,159.17
						s71.4,159.17,159.17,159.17s159.17-71.41,159.17-159.17S-331.14,834.96-418.9,834.96 M-418.9,828.25
						c91.61,0,165.88,74.27,165.88,165.88s-74.27,165.88-165.88,165.88s-165.88-74.27-165.88-165.88S-510.51,828.25-418.9,828.25
						L-418.9,828.25z"/>
				</g>
				<path id="Subtraction_166_1_" class="st1" d="M-389.18,1208.51c-12.5,0-24.97-1.25-37.22-3.75
					c-23.62-4.84-46.06-14.28-66.04-27.79c-29.69-20.04-52.93-48.27-66.91-81.25c-4.72-11.17-8.33-22.78-10.76-34.66
					c-5-24.56-5-49.88,0-74.44c4.84-23.62,14.28-46.06,27.79-66.04c20.04-29.69,48.27-52.93,81.25-66.91
					c11.17-4.72,22.78-8.33,34.66-10.76c24.56-5,49.88-5,74.44,0c23.62,4.84,46.06,14.28,66.03,27.79
					c29.69,20.04,52.93,48.27,66.91,81.25c4.72,11.17,8.33,22.78,10.76,34.66c5,24.56,5,49.88,0,74.44
					c-4.84,23.62-14.28,46.06-27.79,66.03c-20.04,29.69-48.27,52.93-81.25,66.91c-11.17,4.72-22.78,8.33-34.66,10.76
					C-364.21,1207.26-376.68,1208.52-389.18,1208.51z M-389.18,849.15c-96.36,0-174.76,78.37-174.76,174.69v0.28
					c0.15,95.2,74.81,171.79,169.97,174.35c1.57,0.04,3.19,0.06,4.79,0.06s3.22-0.02,4.79-0.06
					c95.16-2.56,169.82-79.14,169.96-174.35c0-0.1,0-0.19,0-0.28C-214.43,927.51-292.83,849.15-389.18,849.15z"/>
			</g>
			<g id="Bolt_1_" transform="translate(116.362 85.027)">
				<g>
					<path id="Subtraction_138-2_1_" class="st1" d="M-574.96,1051.24L-574.96,1051.24c0.67-0.84,16.5-20.74,32.28-42.63
						c9.34-12.97,16.75-23.98,22.02-32.73c6.59-10.94,9.84-18.36,9.65-22.05c-0.22-4.36-5.86-6.58-16.76-6.58
						c-11.48,0-26.83,2.5-37.68,4.59c-11.74,2.27-20.91,4.57-21,4.59l10.92-9.31c-4.31,3.99-6.9,6.41-7.19,6.68l0,0l85.9-32.38
						c2.37,3.3,10.2,4.98,23.26,4.98c11.02-0.16,22.02-0.93,32.95-2.28c9.58-1.12,16.73-2.27,16.8-2.28L-574.96,1051.24z"/>
					<g transform="matrix(1, 0, 0, 1, -700.51, -85.03)">
						<path id="Subtraction_138-3_1_" class="st1" d="M125.56,1136.26L125.56,1136.26c0.67-0.84,16.5-20.74,32.28-42.63
							c9.34-12.97,16.75-23.98,22.02-32.73c6.59-10.94,9.84-18.36,9.65-22.05c-0.22-4.36-5.86-6.58-16.76-6.58
							c-11.48,0-26.83,2.5-37.68,4.59c-11.74,2.27-20.91,4.57-21,4.59l10.92-9.31c-4.31,3.99-6.9,6.41-7.19,6.68l0,0l85.9-32.38
							c2.37,3.3,10.2,4.98,23.26,4.98c11.02-0.16,22.02-0.93,32.95-2.28c9.58-1.12,16.73-2.27,16.8-2.28L125.56,1136.26z"/>
					</g>
				</g>
				<g>
					<path id="Path_2864-2_1_" class="st1" d="M-435.01,827.1c0,0-40.33,34.62-76.1,65.1s-75.46,64.34-75.46,64.34l89.95-34.89
						c-0.42-0.67-0.63-1.46-0.6-2.26c0.01-1.45,0.97-4.75,5.05-12.21c6.91-12.59,8.52-15.2,23.79-36.29
						C-453.09,849.8-435.01,827.1-435.01,827.1z"/>
					<g transform="matrix(1, 0, 0, 1, -700.51, -85.03)">
						<path id="Path_2864-3_1_" class="st1" d="M265.5,912.12c0,0-40.33,34.62-76.1,65.1c-35.78,30.48-75.46,64.34-75.46,64.34
							l89.95-34.89c-0.42-0.67-0.63-1.46-0.6-2.26c0.01-1.45,0.97-4.75,5.05-12.21c6.91-12.59,8.52-15.2,23.79-36.29
							C247.42,934.82,265.5,912.12,265.5,912.12z"/>
					</g>
				</g>
			</g>
		</g>
	</g>
</g>
</svg>
