<?xml version="1.0" encoding="utf-8"?>
<!-- Generator: Adobe Illustrator 27.0.0, SVG Export Plug-In . SVG Version: 6.00 Build 0)  -->
<svg version="1.1" id="Layer_1" xmlns="http://www.w3.org/2000/svg" xmlns:xlink="http://www.w3.org/1999/xlink" x="0px" y="0px"
	 viewBox="0 0 2048 2048" style="enable-background:new 0 0 2048 2048;" xml:space="preserve">
<style type="text/css">
	.st0{display:none;}
	.st1{display:inline;fill:none;stroke:#68686C;stroke-width:16.3125;}
	.st2{display:inline;fill:#1868A8;}
	.st3{fill:#FFFFFF;}
	.st4{fill:#2596BE;}
</style>
<g>
	<g class="st0">
		<path class="st1" d="M973.48,882.97v95.54h159.12v-95.54c91.68-76.46,114.63-125.17,114.63-140.04V628.3
			c-5.03-76.46-78.57-129.5-114.63-146.48c-10.66-6.32-53.51-15.22-140.04,0C906.03,497.16,867.39,585.8,858.85,628.3v95.54
			C858.85,774.66,935.3,851.12,973.48,882.97z"/>
		<path class="st2" d="M1361.86,1029.33c4.22-4.22,1.29-17.8-44.61-38.17c-45.78-20.37-44.61-4.22-38.17,6.32
			C1293.95,1012.35,1331.3,1039.52,1361.86,1029.33z"/>
		<path class="st2" d="M1450.96,978.4c-6.32,8.55-27.98,22.95-63.7,12.76c-35.71-10.19-53.04-21.19-57.26-25.53
			C1325.8,955.1,1344.06,942.8,1450.96,978.4z"/>
		<path class="st2" d="M1540.19,921.14c-16.98,16.98-73.88,40.75-165.56,0C1372.51,916.93,1402.61,910.95,1540.19,921.14z"/>
		<path class="st2" d="M1591.12,857.45c-2.11,19.09-38.17,49.65-165.56,19.09c-6.32-6.32,5.03-19.09,101.87-19.09H1591.12z"/>
		<path class="st2" d="M1578.36,800.19c-87,2.11-272.47,12.76-318.36,38.17c-21.19,10.66-63.7,42.03-63.7,82.78
			c2.11,12.76,17.8,42.03,63.7,57.26c16.98,4.22,34.42,2.58-31.85-38.17c-2.11-4.22-1.29-11.47,19.09-6.32
			c8.55,4.22,30.56,12.76,50.93,12.76c6.32,2.11,5.15-2.58-50.93-38.17c21.19,4.22,70.02,12.76,95.54,12.76
			c14.87-2.11,21.66-11.47-70.02-31.85c-19.09-4.22-24.24-11.47,108.19-6.32c12.76-2.11,14.05-11.47-82.78-31.85L1578.36,800.19z"/>
		<path class="st2" d="M1291.84,851.12c84.89-8.55,268.72-24.24,324.69-19.09c4.22,8.55,10.19,27.98,0,38.17
			c27.63-4.22,87.82-27.98,108.19-89.1C1603.76,793.87,1347.81,825.6,1291.84,851.12z"/>
		<path class="st2" d="M693.17,1029.57c-4.22-4.22-1.29-17.8,44.61-38.17c45.9-20.37,44.61-4.22,38.17,6.32
			C761.08,1012.59,723.73,1039.75,693.17,1029.57z"/>
		<path class="st2" d="M604.06,978.63c6.32,8.55,27.98,22.95,63.7,12.76c35.71-10.19,53.04-21.19,57.26-25.53
			C729.35,955.21,711.08,942.92,604.06,978.63z"/>
		<path class="st2" d="M514.96,921.26c16.98,16.98,73.88,40.75,165.56,0C682.63,917.04,652.42,911.07,514.96,921.26z"/>
		<path class="st2" d="M464.02,857.68c2.11,19.09,38.17,49.65,165.56,19.09c6.32-6.32-5.15-19.09-101.87-19.09H464.02z"/>
		<path class="st2" d="M476.79,800.31c87,2.11,272.47,12.76,318.36,38.17c21.19,10.66,63.7,42.03,63.7,82.78
			c-2.11,12.76-17.8,42.03-63.7,57.26c-16.98,4.22-34.42,2.58,31.85-38.17c2.11-4.22,1.29-11.47-19.09-6.32
			c-8.55,4.22-30.56,12.76-50.93,12.76c-6.32,2.11-5.15-2.58,50.93-38.17c-21.19,4.22-70.02,12.76-95.54,12.76
			c-14.87-2.11-21.66-11.47,70.02-31.85c19.09-4.22,24.24-11.47-108.19-6.32c-12.76-2.11-14.05-11.47,82.78-31.85L476.79,800.31z"/>
		<path class="st2" d="M763.3,851.24c-84.89-8.55-268.72-24.24-324.69-19.09c-4.22,8.55-10.19,27.98,0,38.17
			c-27.63-4.22-87.82-27.98-108.19-89.1C451.26,793.98,707.22,825.83,763.3,851.24z"/>
		<path class="st1" d="M1132.72,1016.69H973.59c5.03,66.16,61.59,78.57,89.1,76.46C1113.51,1093.03,1130.49,1042.09,1132.72,1016.69
			z"/>
	</g>
	<g>
		<g>
			<path class="st3" d="M821.03,1234.12c-18.38,0-33.14,7.14-44.49,21.43l-0.82-18.62h-24v148.47h25.41v-105.85
				c3.4-7.14,8.31-12.88,14.52-17.33c6.21-4.33,13.47-6.56,21.66-6.56c10.19,0,17.56,2.58,22.36,7.73
				c4.8,5.15,7.26,13.11,7.38,23.77v98.24h25.41v-98.12C868.21,1251.8,852.41,1234.12,821.03,1234.12z"/>
			<path class="st3" d="M998.3,1309.88c-7.96-3.98-18.15-7.38-30.91-10.19c-12.65-2.81-21.43-5.74-26.23-8.9
				c-4.8-3.04-7.26-7.73-7.26-13.82c0-6.56,2.58-11.83,7.84-15.81c5.15-4.1,12.41-6.09,21.66-6.09c9.02,0,16.39,2.46,22.25,7.49
				c5.97,5.03,8.9,11.12,8.9,18.03h25.53c0-13.58-5.27-24.71-15.81-33.37c-10.42-8.66-24-13-40.86-13
				c-16.04,0-29.27,4.22-39.58,12.65c-10.19,8.43-15.34,18.73-15.34,30.91c0,7.38,1.87,13.7,5.39,18.97
				c3.63,5.27,9.25,9.84,16.74,13.7c7.49,3.75,17.8,7.14,30.56,9.84c12.88,2.69,21.9,5.97,27.05,9.84
				c5.27,3.75,7.84,9.02,7.84,15.92c0,6.44-2.93,11.71-8.66,15.57c-5.74,3.86-13.47,5.74-23.07,5.74c-10.54,0-18.85-2.46-25.29-7.38
				c-6.32-5.03-9.72-11.71-10.19-20.26h-25.41c0,8.78,2.58,16.98,7.73,24.59c5.15,7.49,12.41,13.35,21.54,17.56
				c9.13,4.22,19.55,6.32,31.5,6.32c16.98,0,30.68-3.98,41.33-11.94c10.66-8.08,15.92-18.73,15.92-31.97
				c0-7.96-1.87-14.64-5.74-20.14C1012,1318.54,1006.14,1313.86,998.3,1309.88z"/>
			<path class="st3" d="M215.91,1234.12c-11.83,0-22.72,3.28-32.9,9.84c-10.07,6.44-18.03,15.57-23.65,27.16
				c-5.5,11.47-8.31,24.59-8.31,39.34v4.68c0,22.25,6.32,39.93,18.97,53.16c12.65,13.23,29.04,19.79,49.18,19.79
				c24.94,0,43.56-9.48,55.73-28.8l-15.46-12.06c-4.57,5.97-10.07,10.89-16.28,14.52c-6.32,3.63-13.82,5.5-22.83,5.5
				c-12.65,0-23.07-4.45-31.26-13.47c-8.2-9.02-12.41-20.84-12.76-35.48h0.12c-0.23-2.93-0.23-10.89,0.59-20.72h0.35
				c1.64-13.47,5.97-23.89,12.88-31.26c6.91-7.49,15.46-11.24,25.76-11.24c10.66,0,19.09,3.51,25.29,10.77
				c6.21,7.03,9.72,16.98,10.42,29.86v1.87h-57.72v20.72h82.9v-10.54c0-23.65-5.39-41.8-16.04-54.56
				C250.22,1240.44,235.23,1234.12,215.91,1234.12z"/>
			<polygon class="st3" points="511.91,1350.97 474.21,1236.93 448.33,1236.93 502.08,1385.4 521.4,1385.4 574.55,1236.93 
				548.68,1236.93 			"/>
			<path class="st3" d="M69.32,1234.24c-18.03,0-32.67,6.91-43.91,20.72v-80.32H0v210.88h25.41v-105.85
				c3.4-7.14,8.31-12.88,14.52-17.33c6.21-4.33,13.47-6.56,21.66-6.56c10.19,0,17.56,2.58,22.36,7.73
				c4.8,5.15,7.26,13.11,7.38,23.77v98.24h25.41v-98.12C116.5,1251.92,100.7,1234.24,69.32,1234.24z"/>
			<path class="st3" d="M658.27,1234.12c-11.83,0-22.72,3.28-32.9,9.84c-10.07,6.44-18.03,15.57-23.65,27.16
				c-5.5,11.47-8.31,24.59-8.31,39.34v4.68c0,22.25,6.32,39.93,18.97,53.16c12.65,13.23,29.04,19.79,49.18,19.79
				c24.82,0,43.44-9.48,55.73-28.8l-15.46-12.06c-4.57,5.97-10.07,10.89-16.28,14.52c-6.32,3.63-13.82,5.5-22.83,5.5
				c-12.65,0-23.07-4.45-31.26-13.47c-8.2-9.02-12.41-20.84-12.76-35.48h0.35c-0.23-2.93-0.23-10.89,0.59-20.72h0.12
				c1.64-13.47,5.97-23.89,12.88-31.26c6.91-7.49,15.46-11.24,25.76-11.24c10.54,0,18.97,3.51,25.29,10.77
				c6.21,7.03,9.72,16.98,10.42,29.86v1.87h-57.49v20.72h82.66v-10.54c0-23.65-5.39-41.8-16.04-54.56
				C692.58,1240.44,677.59,1234.12,658.27,1234.12z"/>
			<path class="st3" d="M1676.01,1234.12c-13.11,0-24.71,3.16-35.01,9.48c-10.19,6.32-18.15,15.34-23.89,26.93
				c-5.74,11.59-8.55,24.71-8.55,39.22h0.12v1.76c0,23.07,6.21,41.57,18.62,55.62c12.53,13.93,28.8,20.96,48.94,20.96
				c13.35,0,25.06-3.16,35.36-9.6c10.42-6.44,18.27-15.34,23.77-26.81c5.62-11.59,8.43-24.59,8.43-38.99v-1.76
				c0-23.18-6.32-41.8-18.85-55.85C1712.54,1241.14,1696.26,1234.12,1676.01,1234.12z M1707.04,1352.38
				c-7.61,10.07-17.91,15.1-30.79,15.1s-23.07-5.03-30.79-14.99c-7.49-9.95-11.36-23.18-11.36-39.69c0-18.62,3.86-32.78,11.47-42.74
				c7.73-9.95,17.8-14.99,30.33-14.99c12.88,0,23.07,5.03,30.79,15.22c7.84,10.07,11.71,23.3,11.71,39.58
				C1718.39,1328.02,1714.65,1342.19,1707.04,1352.38z"/>
			<path class="st3" d="M1847.66,1234.12c-18.38,0-33.14,7.14-44.49,21.43l-0.82-18.62h-23.89v148.47h25.41v-105.85
				c3.4-7.14,8.31-12.88,14.52-17.33c6.21-4.33,13.47-6.56,21.66-6.56c10.19,0,17.56,2.58,22.36,7.73
				c4.8,5.15,7.26,13.11,7.38,23.77v98.24h25.41v-98.12C1894.85,1251.8,1879.04,1234.12,1847.66,1234.12z"/>
			<path class="st3" d="M2042.26,1324.16c-3.75-5.62-9.6-10.3-17.45-14.28c-7.96-3.98-18.15-7.38-30.91-10.19
				c-12.65-2.81-21.43-5.74-26.23-8.9c-4.8-3.04-7.26-7.73-7.26-13.82c0-6.56,2.58-11.83,7.84-15.81c5.15-4.1,12.41-6.09,21.66-6.09
				c9.02,0,16.39,2.46,22.25,7.49c5.97,5.03,8.9,11.12,8.9,18.03h25.53c0-13.58-5.27-24.71-15.81-33.37c-10.42-8.66-24-13-40.86-13
				c-16.04,0-29.27,4.22-39.58,12.65c-10.19,8.43-15.34,18.73-15.34,30.91c0,7.38,1.76,13.7,5.39,18.97
				c3.63,5.27,9.25,9.84,16.74,13.7c7.49,3.75,17.8,7.14,30.56,9.84c12.88,2.69,21.9,5.97,27.05,9.84
				c5.27,3.75,7.84,9.02,7.84,15.92c0,6.44-2.93,11.71-8.78,15.57c-5.74,3.86-13.47,5.74-23.07,5.74c-10.42,0-18.85-2.46-25.29-7.38
				c-6.32-5.03-9.72-11.71-10.19-20.26h-25.41c0,8.78,2.58,16.98,7.73,24.59c5.27,7.49,12.41,13.35,21.54,17.56
				c9.25,4.22,19.67,6.32,31.61,6.32c16.98,0,30.68-3.98,41.33-11.94c10.66-8.08,15.92-18.73,15.92-31.97
				C2048,1336.34,2046.13,1329.66,2042.26,1324.16z"/>
			<path class="st3" d="M1117.96,1234.12c-13.11,0-24.71,3.16-35.01,9.48c-10.19,6.32-18.15,15.34-23.89,26.93
				c-5.74,11.59-8.55,24.71-8.55,39.22h0.23v1.76c0,23.07,6.21,41.57,18.62,55.62c12.53,13.93,28.8,20.96,48.94,20.96
				c13.35,0,25.06-3.16,35.36-9.6c10.3-6.44,18.27-15.34,23.77-26.81c5.5-11.59,8.31-24.59,8.31-38.99v-1.76
				c0-23.18-6.32-41.8-18.85-55.85C1154.5,1241.14,1138.22,1234.12,1117.96,1234.12z M1148.99,1352.38
				c-7.61,10.07-17.91,15.1-30.79,15.1s-23.07-5.03-30.79-14.99c-7.61-9.95-11.36-23.18-11.36-39.69c0-18.62,3.86-32.78,11.47-42.74
				c7.73-9.95,17.8-14.99,30.33-14.99c12.88,0,23.07,5.03,30.79,15.22c7.84,10.07,11.71,23.3,11.71,39.58
				C1160.35,1328.02,1156.6,1342.19,1148.99,1352.38z"/>
			<path class="st3" d="M1559.27,1182.95c-4.92,0-8.66,1.41-11.24,4.22c-2.58,2.81-3.75,6.32-3.75,10.42c0,4.1,1.17,7.49,3.75,10.3
				c2.58,2.69,6.32,4.1,11.24,4.1c4.92,0,8.66-1.41,11.24-4.1c2.58-2.81,3.86-6.21,3.86-10.3c0-4.1-1.29-7.61-3.86-10.42
				C1567.94,1184.36,1564.19,1182.95,1559.27,1182.95z"/>
			<path class="st3" d="M1382.47,1345c-6.32,14.4-19.2,21.66-38.64,21.66c-18.27,0-27.4-11.24-27.4-33.72v-95.9h-25.41v96.6
				c0.12,18.03,4.33,31.61,12.53,40.86c8.31,9.13,20.37,13.7,36.18,13.7c19.09,0,33.6-5.85,43.44-17.45l0.59,14.64h24.12v-148.35
				h-25.41V1345z"/>
			<rect x="1222.52" y="1174.64" class="st3" width="25.41" height="210.76"/>
			<path class="st3" d="M1487.61,1362.1c-2.58-3.04-3.75-7.49-3.75-13.47v-92.03h27.75v-19.67h-27.75v-35.95h-25.29v35.95h-27.05
				v19.67h27.05v92.03c0,12.65,2.93,22.36,8.66,29.27c5.74,6.91,14.28,10.3,25.64,10.3c6.21,0,12.76-0.82,19.44-2.69v-20.61
				c-5.15,1.05-9.13,1.64-12.06,1.64C1494.29,1366.55,1490.07,1365.02,1487.61,1362.1z"/>
			<rect x="1546.27" y="1236.93" class="st3" width="25.41" height="148.47"/>
		</g>
		<path class="st3" d="M407.23,1247c-9.6-8.55-23.07-12.88-40.16-12.88c-10.77,0-20.72,2.11-29.74,6.09
			c-9.02,4.1-16.16,9.6-21.43,16.51c-5.27,6.91-7.84,14.05-7.84,21.43h25.53c0-6.56,3.16-12.06,9.25-16.63
			c6.21-4.57,13.82-6.91,22.83-6.91c10.3,0,18.15,2.69,23.42,7.96c5.27,5.15,7.96,12.18,7.96,21.08v11.71h-24.71
			c-21.31,0-37.82,4.33-49.65,12.88c-11.71,8.55-17.56,20.49-17.56,35.95c0,12.76,4.68,23.3,14.05,31.61
			c9.37,8.2,21.43,12.29,36.06,12.29c5.27,0,10.3-0.59,15.1-1.87c19.2-2.69,52.34-14.87,51.87-45.9l-0.23,0.23l0.23-0.82l0.12,0.59
			v-58.08C421.99,1267.26,416.95,1255.55,407.23,1247z M338.5,1359.29c-5.27-4.45-7.96-10.66-7.96-18.62
			c0-18.15,15.46-27.28,46.6-27.28h19.91v30.44c-3.16,6.56-8.31,11.94-15.46,16.04c-7.14,4.1-14.64,6.21-22.6,6.21
			C350.68,1366.08,343.77,1363.85,338.5,1359.29z"/>
	</g>
	<g>
		<g>
			<path class="st4" d="M646.33,1471.46c-2.11,0-3.75,0.59-4.8,1.76c-1.05,1.17-1.52,2.69-1.52,4.45s0.47,3.28,1.52,4.33
				c1.05,1.17,2.69,1.76,4.8,1.76c2.11,0,3.75-0.59,4.8-1.76c1.05-1.17,1.64-2.58,1.64-4.33s-0.59-3.28-1.64-4.45
				C650.08,1472.04,648.44,1471.46,646.33,1471.46z"/>
			<path class="st4" d="M777.47,1501.43c-4.33-5.5-10.3-8.2-18.03-8.2c-7.49,0-13.47,2.93-18.03,8.78
				c-4.57,5.74-6.79,13.58-6.79,23.42c0,10.3,2.34,18.38,7.03,24.35c4.57,5.97,10.54,8.9,17.91,8.9c7.49,0,13.35-2.46,17.68-7.49
				v5.39c0,5.39-1.52,9.6-4.45,12.53c-2.93,2.93-7.03,4.45-12.29,4.45c-6.67,0-12.29-2.81-16.98-8.55l-5.62,6.44
				c2.22,3.4,5.62,5.97,9.95,7.96c4.33,1.99,8.78,2.93,13.35,2.93c8.08,0,14.64-2.34,19.44-7.03c4.8-4.68,7.26-11.12,7.26-19.32
				v-61.59h-9.84L777.47,1501.43z M777.12,1540.31c-3.16,6.21-8.2,9.25-14.99,9.25c-5.27,0-9.37-2.11-12.29-6.09
				c-2.93-3.98-4.33-9.6-4.33-16.74c0-8.08,1.52-14.05,4.45-18.15c2.93-3.98,7.03-6.09,12.29-6.09c6.56,0,11.59,3.04,14.87,9.02
				V1540.31z"/>
			<path class="st4" d="M699.61,1493.24c-7.73,0-14.05,3.04-18.85,9.13l-0.35-7.96l0,0h-10.3v63.11h10.77v-44.96
				c1.52-3.04,3.51-5.5,6.21-7.38c2.69-1.87,5.74-2.81,9.25-2.81c4.33,0,7.49,1.05,9.48,3.28c2.11,2.11,3.16,5.5,3.16,10.07v41.8
				h10.77v-41.68C719.63,1500.73,712.95,1493.24,699.61,1493.24z"/>
			<rect x="475.26" y="1494.41" class="st4" width="10.77" height="63.11"/>
			<rect x="445.05" y="1467.95" class="st4" width="10.77" height="89.57"/>
			<path class="st4" d="M480.65,1471.46c-2.11,0-3.75,0.59-4.8,1.76c-1.05,1.17-1.52,2.69-1.52,4.45s0.59,3.28,1.52,4.33
				c1.05,1.17,2.69,1.76,4.8,1.76c2.11,0,3.75-0.59,4.8-1.76c1.05-1.17,1.64-2.58,1.64-4.33s-0.59-3.28-1.64-4.45
				C484.4,1472.04,482.76,1471.46,480.65,1471.46z"/>
			<rect x="640.83" y="1494.41" class="st4" width="10.77" height="63.11"/>
			<path class="st4" d="M415.08,1551.08L415.08,1551.08c0.12-0.12,0.23-0.12,0.23-0.23l0,0c2.93-2.46,8.78-7.84,10.54-11.24
				l0.12-0.23v-25.76c-0.23-6.44-2.34-11.36-6.44-14.99c-4.1-3.63-9.84-5.5-17.09-5.5c-4.57,0-8.78,0.82-12.65,2.58
				c-3.86,1.76-6.91,4.1-9.13,7.03c-2.22,2.93-3.28,5.97-3.28,9.13h10.89c0-2.69,1.29-5.03,3.86-7.03c2.69-1.99,5.85-2.93,9.72-2.93
				c4.33,0,7.73,1.17,9.95,3.4c2.22,2.22,3.4,5.27,3.4,9.02v4.92h-10.54c-9.02,0-16.04,1.87-21.08,5.5
				c-5.03,3.63-7.49,8.78-7.49,15.34c0,5.39,1.99,9.84,5.97,13.35c3.98,3.51,9.13,5.27,15.34,5.27
				C404.19,1558.69,410.04,1556.23,415.08,1551.08L415.08,1551.08z M408.64,1546.75c-3.04,1.64-6.21,2.58-9.6,2.58
				c-3.63,0-6.44-0.94-8.66-2.81c-2.22-1.87-3.4-4.57-3.4-7.96c0-7.73,6.56-11.59,19.79-11.59h8.43v13
				C413.91,1542.77,411.68,1544.99,408.64,1546.75z"/>
			<path class="st4" d="M602.19,1493.24c-7.73,0-14.05,3.04-18.85,9.13l-0.35-7.96l0,0h-10.3v63.11h10.77v-44.96
				c1.52-3.04,3.51-5.5,6.21-7.38c2.69-1.87,5.74-2.81,9.25-2.81c4.33,0,7.49,1.05,9.48,3.28c2.11,2.11,3.16,5.5,3.16,10.07v41.8
				h10.77v-41.68C622.21,1500.73,615.54,1493.24,602.19,1493.24z"/>
			<path class="st4" d="M544.81,1501.43c-4.33-5.5-10.3-8.2-18.03-8.2c-7.49,0-13.47,2.93-18.03,8.78
				c-4.57,5.74-6.79,13.58-6.79,23.42c0,10.3,2.34,18.38,6.91,24.35c4.57,5.97,10.54,8.9,17.91,8.9c7.49,0,13.35-2.46,17.68-7.49
				v5.39c0,5.39-1.52,9.6-4.45,12.53c-2.93,2.93-7.03,4.45-12.29,4.45c-6.67,0-12.29-2.81-16.98-8.55l-5.62,6.44
				c2.22,3.4,5.62,5.97,9.95,7.96c4.33,1.99,8.78,2.93,13.35,2.93c8.08,0,14.64-2.34,19.44-7.03c4.8-4.68,7.26-11.12,7.26-19.32
				v-61.59h-9.84L544.81,1501.43z M544.46,1540.31c-3.16,6.21-8.2,9.25-14.99,9.25c-5.27,0-9.37-2.11-12.29-6.09
				c-2.93-3.98-4.33-9.6-4.33-16.74c0-8.08,1.52-14.05,4.45-18.15c2.93-3.98,7.03-6.09,12.29-6.09c6.56,0,11.59,3.04,14.87,9.02
				V1540.31z"/>
			<rect x="838.82" y="1472.63" class="st4" width="11.24" height="84.89"/>
			<path class="st4" d="M1459.63,1493.24c-7.73,0-14.05,3.04-18.85,9.13l-0.35-7.96l0,0h-10.3v63.11h10.77v-44.96
				c1.52-3.04,3.51-5.5,6.21-7.38s5.74-2.81,9.25-2.81c4.33,0,7.49,1.05,9.48,3.28c2.11,2.11,3.16,5.5,3.16,10.07v41.8h10.77v-41.68
				C1479.65,1500.73,1472.98,1493.24,1459.63,1493.24z"/>
			<rect x="1400.97" y="1494.41" class="st4" width="10.77" height="63.11"/>
			<path class="st4" d="M1406.47,1471.46c-2.11,0-3.75,0.59-4.8,1.76c-1.05,1.17-1.52,2.69-1.52,4.45s0.47,3.28,1.52,4.33
				c1.05,1.17,2.69,1.76,4.8,1.76s3.75-0.59,4.8-1.76s1.64-2.58,1.64-4.33s-0.59-3.28-1.64-4.45
				C1410.22,1472.04,1408.58,1471.46,1406.47,1471.46z"/>
			<path class="st4" d="M1513.02,1520.17v8.66h35.01v-4.45c0-10.07-2.22-17.8-6.79-23.18c-4.45-5.39-10.89-8.08-19.09-8.08
				c-4.92,0-9.6,1.41-13.93,4.22c-4.33,2.81-7.61,6.67-10.07,11.59c-2.34,4.92-3.51,10.54-3.51,16.74v1.99
				c0,9.48,2.69,16.98,8.08,22.6c5.27,5.62,12.29,8.43,20.84,8.43c10.54,0,18.5-4.1,23.65-12.41l-6.56-5.15
				c-1.99,2.58-4.22,4.68-6.91,6.21c-2.69,1.52-5.85,2.34-9.72,2.34c-5.39,0-9.84-1.87-13.35-5.74c-3.28-3.75-5.15-8.55-5.39-14.52
				l0,0c-0.12-1.17-0.23-4.8,0.23-9.37h0.12c0.7-5.62,2.58-9.95,5.5-13.11c3.04-3.16,6.67-4.8,11.01-4.8c4.57,0,8.2,1.52,10.66,4.45
				c2.69,3.04,4.1,7.26,4.45,12.76v0.82H1513.02z"/>
			<path class="st4" d="M1599.43,1525.2c-3.4-1.64-7.73-3.16-13.11-4.33c-5.39-1.17-9.02-2.46-11.12-3.75
				c-1.99-1.29-3.04-3.28-3.04-5.85c0-2.69,1.05-4.92,3.28-6.67c2.22-1.76,5.39-2.58,9.25-2.58s7.03,1.05,9.48,3.16
				c2.46,2.11,3.75,4.68,3.75,7.61h10.89c0-5.74-2.22-10.42-6.67-14.17c-4.33-3.63-10.19-5.5-17.33-5.5
				c-6.79,0-12.29,1.76-16.74,5.39c-4.33,3.51-6.56,7.96-6.56,13.11c0,3.16,0.7,5.85,2.22,8.08s3.98,4.22,7.14,5.85
				c3.28,1.64,7.49,3.04,13,4.22c5.5,1.17,9.25,2.58,11.47,4.22s3.28,3.86,3.28,6.79c0,2.81-1.29,5.03-3.86,6.44
				c-2.46,1.64-5.74,2.46-9.84,2.46c-4.45,0-8.08-1.05-10.77-3.16c-2.69-2.22-4.1-5.03-4.33-8.66h-10.77
				c0,3.75,1.05,7.14,3.28,10.42c2.22,3.16,5.27,5.74,9.13,7.49c3.98,1.76,8.43,2.69,13.47,2.69c7.26,0,13.11-1.64,17.56-5.03
				c4.57-3.4,6.79-7.96,6.79-13.58c0-3.4-0.82-6.21-2.46-8.55C1605.29,1528.83,1602.71,1526.84,1599.43,1525.2z"/>
			<path class="st4" d="M1669.57,1531.29c-1.52-2.46-3.98-4.45-7.38-6.09c-3.4-1.64-7.73-3.16-13.11-4.33
				c-5.39-1.17-9.02-2.46-11.12-3.75c-1.99-1.29-3.04-3.28-3.04-5.85c0-2.69,1.05-4.92,3.28-6.67s5.39-2.58,9.25-2.58
				s7.03,1.05,9.48,3.16c2.46,2.11,3.75,4.68,3.75,7.61h10.89c0-5.74-2.22-10.42-6.67-14.17c-4.33-3.63-10.19-5.5-17.33-5.5
				c-6.79,0-12.29,1.76-16.74,5.39c-4.33,3.51-6.56,7.96-6.56,13.11c0,3.16,0.7,5.85,2.22,8.08s3.98,4.22,7.14,5.85
				s7.49,3.04,13,4.22c5.5,1.17,9.25,2.58,11.47,4.22s3.28,3.86,3.28,6.79c0,2.81-1.17,5.03-3.75,6.44
				c-2.46,1.64-5.74,2.46-9.84,2.46c-4.45,0-8.08-1.05-10.77-3.16c-2.69-2.22-4.1-5.03-4.33-8.66h-10.77
				c0,3.75,1.05,7.14,3.28,10.42c2.22,3.16,5.27,5.74,9.13,7.49c3.86,1.76,8.31,2.69,13.35,2.69c7.14,0,13-1.64,17.56-5.03
				c4.57-3.4,6.79-7.96,6.79-13.58C1672.03,1536.44,1671.21,1533.63,1669.57,1531.29z"/>
			<path class="st4" d="M1064.81,1493.24c-7.73,0-14.05,3.04-18.85,9.13l-0.35-7.96l0,0h-10.3v63.11h10.77v-44.96
				c1.52-3.04,3.51-5.5,6.21-7.38s5.74-2.81,9.25-2.81c4.33,0,7.49,1.05,9.48,3.28c2.11,2.11,3.16,5.5,3.16,10.07v41.8h10.77v-41.68
				C1084.83,1500.73,1078.15,1493.24,1064.81,1493.24z"/>
			<path class="st4" d="M1142.32,1500.85c-4.33-5.03-10.19-7.61-17.56-7.61c-7.49,0-13.47,3.04-18.03,8.9
				c-4.57,5.85-6.91,13.58-6.91,23.3h-0.12v0.82c0,9.6,2.34,17.45,6.91,23.42c4.68,5.97,10.66,9.02,17.91,9.02
				c7.73,0,13.7-2.69,18.03-7.96l0.59,6.79h9.95v-89.57h-10.77L1142.32,1500.85L1142.32,1500.85z M1142.43,1540.31
				c-3.16,6.21-8.2,9.25-14.99,9.25c-5.27,0-9.37-2.11-12.29-6.09c-2.93-3.98-4.45-9.6-4.45-16.74c0-8.08,1.4-14.05,4.45-18.27
				c3.04-3.98,7.14-6.09,12.41-6.09c6.67,0,11.59,2.93,14.87,8.9L1142.43,1540.31L1142.43,1540.31z"/>
			<polygon class="st4" points="862.94,1472.51 862.94,1481.76 890.23,1481.76 890.23,1557.52 901.35,1557.52 901.35,1481.76 
				928.63,1481.76 928.63,1472.51 			"/>
			<path class="st4" d="M1230.72,1493.35c-7.73,0-13.7,2.69-18.03,8.08v-33.37h-10.77v89.57h9.95l0.47-7.26
				c4.33,5.62,10.54,8.43,18.5,8.43c7.38,0,13.35-2.93,17.8-8.78c4.45-5.85,6.67-13.7,6.67-23.3v-0.94
				c0-10.07-2.11-18.03-6.56-23.77C1244.42,1496.28,1238.33,1493.35,1230.72,1493.35z M1240.2,1543.7
				c-2.93,3.98-6.91,5.97-12.06,5.97c-7.03,0-12.18-3.4-15.46-9.95v-27.28c3.16-6.67,8.2-9.95,15.34-9.95
				c5.39,0,9.48,1.99,12.29,5.97c2.81,3.98,4.22,9.6,4.22,16.98C1244.54,1533.52,1243.13,1539.49,1240.2,1543.7z"/>
			<path class="st4" d="M1308.94,1540.31c-2.69,6.21-8.2,9.25-16.39,9.25c-7.84,0-11.71-4.8-11.71-14.4v-40.75h-10.77v41.1
				c0,7.61,1.76,13.35,5.27,17.33c3.51,3.86,8.66,5.85,15.34,5.85c8.2,0,14.28-2.46,18.5-7.38l0.23,6.21h10.3v-63.11h-10.77
				L1308.94,1540.31L1308.94,1540.31z"/>
			<path class="st4" d="M1374.86,1525.2c-3.4-1.64-7.73-3.16-13.11-4.33c-5.39-1.17-9.02-2.46-11.12-3.75
				c-1.99-1.29-3.04-3.28-3.04-5.85c0-2.69,1.05-4.92,3.28-6.67c2.22-1.76,5.27-2.58,9.25-2.58c3.86,0,7.03,1.05,9.48,3.16
				c2.46,2.11,3.75,4.68,3.75,7.61h10.89c0-5.74-2.22-10.42-6.67-14.17c-4.33-3.63-10.19-5.5-17.33-5.5
				c-6.79,0-12.29,1.76-16.74,5.39c-4.33,3.51-6.56,7.96-6.56,13.11c0,3.16,0.7,5.85,2.22,8.08s3.98,4.22,7.14,5.85
				c3.28,1.64,7.49,3.04,13,4.22c5.5,1.17,9.25,2.58,11.47,4.22c2.11,1.64,3.28,3.86,3.28,6.79c0,2.81-1.29,5.03-3.75,6.44
				c-2.46,1.64-5.74,2.46-9.84,2.46c-4.45,0-8.08-1.05-10.77-3.16c-2.69-2.22-4.1-5.03-4.33-8.66h-10.77
				c0,3.75,1.05,7.14,3.28,10.42c2.22,3.16,5.27,5.74,9.13,7.49c3.86,1.76,8.31,2.69,13.35,2.69c7.26,0,13-1.64,17.56-5.03
				c4.57-3.4,6.79-7.96,6.79-13.58c0-3.4-0.82-6.21-2.46-8.55C1380.71,1528.83,1378.13,1526.84,1374.86,1525.2z"/>
		</g>
		<path class="st4" d="M1017.15,1543.47l0.23-0.59c0-0.12,0-0.23,0-0.23v-29.04c-0.23-6.44-2.34-11.36-6.44-14.99
			c-4.1-3.63-9.84-5.5-17.09-5.5c-4.57,0-8.78,0.82-12.65,2.58c-3.86,1.76-6.91,4.1-9.13,7.03s-3.28,5.97-3.28,9.13h10.89
			c0-2.69,1.29-5.03,3.86-7.03c2.69-1.99,5.85-2.93,9.72-2.93c4.33,0,7.73,1.17,9.95,3.4c2.22,2.22,3.4,5.27,3.4,9.02v4.92h-10.54
			c-9.02,0-16.04,1.87-21.08,5.5c-5.03,3.63-7.49,8.78-7.49,15.34c0,5.39,1.99,9.84,5.97,13.35c3.98,3.51,9.13,5.27,15.34,5.27
			c2.69,0,5.27-0.35,7.73-1.17c2.81-0.35,6.67-1.29,10.19-3.04C1009.89,1551.9,1015.39,1546.75,1017.15,1543.47z M1006.49,1539.96
			c-1.29,2.81-3.51,5.03-6.56,6.79c-3.04,1.64-6.21,2.58-9.6,2.58c-3.63,0-6.44-0.94-8.66-2.81s-3.4-4.57-3.4-7.96
			c0-7.73,6.56-11.59,19.79-11.59h8.43V1539.96z"/>
	</g>
</g>
</svg>
