<?xml version="1.0" encoding="utf-8"?>
<!-- Generator: Adobe Illustrator 27.0.0, SVG Export Plug-In . SVG Version: 6.00 Build 0)  -->
<svg version="1.1" xmlns="http://www.w3.org/2000/svg" xmlns:xlink="http://www.w3.org/1999/xlink" x="0px" y="0px"
	 viewBox="0 0 1700.79 605.34" style="enable-background:new 0 0 1700.79 605.34;" xml:space="preserve">
<style type="text/css">
	.st0{fill:#0091C8;}
	.st1{fill:none;stroke:#0091C8;stroke-width:1.5;stroke-linecap:round;stroke-linejoin:round;stroke-miterlimit:10;}
	.st2{fill:#00AEEF;}
	.st3{fill:none;stroke:#00AEEF;stroke-width:1.5;stroke-linecap:round;stroke-linejoin:round;stroke-miterlimit:10;}
	.st4{fill:#FFF24F;}
	.st5{fill:none;stroke:#FFF24F;stroke-width:1.5;stroke-linecap:round;stroke-linejoin:round;stroke-miterlimit:10;}
	.st6{fill:#FFDB01;}
	.st7{fill:none;stroke:#FFDB01;stroke-width:1.5;stroke-linecap:round;stroke-linejoin:round;stroke-miterlimit:10;}
	.st8{fill:#FBB814;}
	.st9{fill:none;stroke:#FBB814;stroke-width:1.5;stroke-linecap:round;stroke-linejoin:round;stroke-miterlimit:10;}
	.st10{fill:#FFFFFF;stroke:#FFFFFF;stroke-width:0.5;stroke-linecap:round;stroke-linejoin:round;stroke-miterlimit:10;}
	
		.st11{fill-rule:evenodd;clip-rule:evenodd;fill:#FFFFFF;stroke:#FFFFFF;stroke-width:0.5;stroke-linecap:round;stroke-linejoin:round;stroke-miterlimit:10;}
	.st12{fill:none;stroke:#FFFFFF;stroke-width:0.5;stroke-linecap:round;stroke-linejoin:round;stroke-miterlimit:10;}
	.st13{fill:none;stroke:#FFFFFF;stroke-width:0.3;stroke-linecap:round;stroke-linejoin:round;stroke-miterlimit:10;}
</style>
<g id="Layer_2">
</g>
<g id="Layer_1">
	<g id="_x31_">
		<g>
			<g id="_x32_">
				<g>
					<path id="_x33_" class="st0" d="M145.31,351.33c-0.14-1.02-78.17-164.58-81.38-169.09l104.15,0.32l28.58,65.59L145.31,351.33z"
						/>
				</g>
				<g>
					<path id="_x33__00000075865383740050071250000005669006383398697610_" class="st1" d="M145.31,351.33
						c-0.14-1.02-78.17-164.58-81.38-169.09l104.15,0.32l28.58,65.59L145.31,351.33z"/>
				</g>
			</g>
		</g>
		<g>
			<g id="_x34_">
				<g>
					<path id="_x35_" class="st2" d="M228.18,182.81L145.33,351.4l210.83-0.24l28.36-60.63L332.7,182.25L228.18,182.81z"/>
				</g>
				<g>
					<path id="_x35__00000071528333472243081600000013348445313785871526_" class="st3" d="M228.18,182.81L145.33,351.4l210.83-0.24
						l28.36-60.63L332.7,182.25L228.18,182.81z"/>
				</g>
			</g>
		</g>
		<g>
			<g id="_x36_">
				<g>
					<path id="_x37_" class="st4" d="M542.67,182.29l-108.46,0.52L452.9,242l117.01-1.38L542.67,182.29z"/>
				</g>
				<g>
					<path id="_x37__00000173155564770899292390000015553071073536236965_" class="st5" d="M542.67,182.29l-108.46,0.52L452.9,242
						l117.01-1.38L542.67,182.29z"/>
				</g>
			</g>
		</g>
		<g>
			<g id="_x38_">
				<g>
					<path id="_x39_" class="st6" d="M597.01,295.85l-112.77,1.34l-26.54-54.66l112.25-1.83L597.01,295.85z"/>
				</g>
				<g>
					<path id="_x39__00000166672787464152676950000000241699489526310293_" class="st7" d="M597.01,295.85l-112.77,1.34
						l-26.54-54.66l112.25-1.83L597.01,295.85z"/>
				</g>
			</g>
		</g>
		<g>
			<g id="_x31_0">
				<g>
					<path id="_x31_1" class="st8" d="M508.54,350.87l115.64,0.7l-27.2-55.71l-113.02,1.66L508.54,350.87z"/>
				</g>
				<g>
					<path id="_x31_1_00000012463771494661327880000008509777062383716782_" class="st9" d="M508.54,350.87l115.64,0.7l-27.2-55.71
						l-113.02,1.66L508.54,350.87z"/>
				</g>
			</g>
		</g>
		<g>
			<g id="_x31_2">
				<g>
					<path id="_x31_3" class="st0" d="M436.48,182.79l-103.82-0.56l82.05,169.22l104.07-0.52L436.48,182.79z"/>
				</g>
				<g>
					<path id="_x31_3_00000148658095406532759690000007379619004615317942_" class="st1" d="M436.48,182.79l-103.82-0.56
						l82.05,169.22l104.07-0.52L436.48,182.79z"/>
				</g>
			</g>
		</g>
	</g>
	<g id="Layer_3_7_">
		<path id="Path_120_" class="st10" d="M624,182.06l32.92,0.05l9.94,68.32l10.35-68.17l30.87,0.32l11.18,67.42l9.03-67.37
			l31.78-0.14l-24.4,98.49l-31.94,0.09l-10.61-62.45l-11.12,62.62l-32.7,0.15L624,182.06z"/>
		<path id="Path_119_" class="st10" d="M768.55,210.62l30.92,0.07l0.39,71.24l-31.4-0.26L768.55,210.62z"/>
		<path id="Path_118_" class="st10" d="M769.09,181.28l-0.01,20.6l30.73-0.08l-0.04-20.3L769.09,181.28z"/>
		<path id="Path_117_" class="st10" d="M815.66,210.48l-0.01,71.06l25.84,0.06l0.46-47.6c0,0,15.92-14.64,20.34,1.76
			c2.33,8.67,0.82,45.62,0.82,45.62l26.96-0.18c0,0,2.12-46.02-0.26-52.85c-15.57-44.72-49.22-6-49.22-6l-0.13-11.72L815.66,210.48z
			"/>
		<path id="Path_116_" class="st10" d="M936.72,279.84l-30.34,0.23l-0.12-98.26l38.96,0.23l18.91,64.15l16.55-63.97l39.2-0.45
			l1.12,98.29h-28.63c0,0,0.53-61.07-0.63-60.27c-1.17,0.8-15.98,60.18-15.98,60.18l-23.57-0.21l-16.5-60.7L936.72,279.84z"/>
		<path id="Path_115_" class="st10" d="M1037.77,182.58l0.66,97.38l79.92-0.32l-0.21-22.68l-47.73,0.06l-0.25-14.32l41.29,0.26
			l0.17-25.19l-42.48-0.13l0.03-12.38l50.28,0.23l0.14-22.66L1037.77,182.58z"/>
		<path id="Path_114_" class="st10" d="M1135.23,182.64l0.31,96.49l30.84-0.03l-0.81-52.44l35.95,51.58l29.92-0.12l-0.48-95.87
			l-30.49-0.16l-0.54,53.46l-34.31-52.89L1135.23,182.64z"/>
		<path id="Path_113_" class="st10" d="M1243.28,182.09l0.14,26.05l29.73,0.44l-0.26,70.16l31.01,0.17l0.35-70.76l28.54-0.15
			l0.43-26.21L1243.28,182.09z"/>
		<path id="Path_9_2_" class="st11" d="M1392.46,179.12c28.05,0,52.95,23.69,52.95,51.61s-23.05,53.8-51.1,53.8
			c-28.05,0-52.98-23.54-52.98-51.45S1364.41,179.12,1392.46,179.12z M1391.98,204.06c20.91-1.08,19.66,27.13,19.66,27.13
			s0.27,29.27-18.22,28.88c-19.3-0.4-18.76-27.93-18.76-27.93S1372.94,205.05,1391.98,204.06z"/>
		<path id="Path_10_2_" class="st11" d="M1458.32,280.11l0.01-97.06l60.42,0.54c41.01,2.65,29.11,52.88,11.86,50.24
			c0,0,18.98,2.54,19.43,21.39l0.22,25.44l-30.66-0.18l-0.21-20.76c-0.26-13.71-2.61-14.33-10.32-14.65l-18.05,0.19l-0.44,34.98
			L1458.32,280.11z M1490.23,205.74v18.34l21.03-0.15c8.5,0,12.46-17.25-0.47-18.06L1490.23,205.74z"/>
		<path id="Path_112_" class="st12" d="M954.87,298.49l-45.38-0.37l0.03,23.08l42.93-0.11l-42.86,0.18l0.09,26.45l46,0.24"/>
		<path id="Path_111_" class="st12" d="M978.23,348.78l0.18-54.6l49.79,53.97l0.35-54.42"/>
		<path id="Path_110_" class="st12" d="M1046.96,295.56l25.99,0.34l-0.2,53.22l0.22-53.24h26"/>
		<path id="Path_Copy_22_" class="st12" d="M1162.35,298.05l-45.37-0.37l0.02,23.08l42.93-0.12l-42.86,0.18l0.09,26.45l46.01,0.24"
			/>
		<path id="Path_Copy_18_" class="st12" d="M1185.42,350.35l0.77-54.1l33.72,0.24c20.87,0.48,15.16,31.58,2.23,31.66l-36.35-0.32
			l36.35,0.48l14.16,21.37"/>
		<path id="Path_109_" class="st12" d="M1259.07,349.44l-0.09-52.56l34.66,0.09c15.73-0.87,17.81,27.54,3.04,30.67l-37.87-0.43"/>
		<path id="Path_108_" class="st12" d="M1329.86,350.53l0.77-54.1l33.73,0.24c20.87,0.48,15.15,31.58,2.22,31.66l-36.34-0.32
			l36.34,0.48l14.16,21.37"/>
		<path id="Path_107_" class="st12" d="M1405.69,295.9l-0.91,54.34"/>
		<path id="Path_106_" class="st12" d="M1476.48,296.93l-38.47-0.08c-13.12-0.32-16.6,14.9-6.68,20.31
			c6.6,3.6,32.39,4.95,42.56,11.11c5.34,3.24,10.04,17.9-6.48,19.68l-37.78-0.19"/>
		<path id="Path_Copy_1_12_" class="st12" d="M1548.44,298.12l-45.37-0.37l0.02,23.08l42.93-0.12l-42.86,0.18l0.09,26.45l46.01,0.24
			"/>
		<path id="Path_55_" class="st13" d="M1583.21,183.38c8.06,0,14.59,6.54,14.59,14.6s-6.53,14.6-14.59,14.6
			c-8.07,0-14.6-6.54-14.6-14.6S1575.14,183.38,1583.21,183.38z"/>
		<path id="Path_Copy_17_" class="st13" d="M1579.28,205.14l0.21-14.26l5.5,0.08c4.19-0.11,4.15,7.77,0.36,8.33l-6.01-0.08
			l8.36,5.75"/>
	</g>
</g>
</svg>
