<svg xmlns="http://www.w3.org/2000/svg" xmlns:xlink="http://www.w3.org/1999/xlink" width="115" height="140" viewBox="0 0 115 140">
    <defs>
        <path id="bnny3wifya" d="M0 0L69.448 0 69.448 11.021 0 11.021z"/>
        <path id="2l0kv5b19c" d="M0 88.331L69.449 88.331 69.449 0 0 0z"/>
    </defs>
    <g fill="none" fill-rule="evenodd">
        <g>
            <g>
                <g>
                    <path fill="#EC1D24" d="M0 0h115v82.5c0 31.756-25.744 57.5-57.5 57.5S0 114.256 0 82.5V0z" transform="translate(-667.000000, 0.000000) translate(357.000000, 0.000000) translate(310.000000, 0.000000)"/>
                    <g transform="translate(-667.000000, 0.000000) translate(357.000000, 0.000000) translate(310.000000, 0.000000) translate(23.000000, 13.999280)">
                        <g transform="translate(0.001080, 77.310540)">
                            <mask id="r7tdxngjub" fill="#fff">
                                <use xlink:href="#bnny3wifya"/>
                            </mask>
                            <path fill="#FEFEFE" d="M61.857.882h3.107c1.026 0 1.868.07 2.516.212.65.144 1.138.368 1.462.666.32.303.491.695.507 1.176 0 .635-.176 1.195-.534 1.681-.353.486-.812.878-1.393 1.174-.571.295-1.188.495-1.842.604l.058-.336c.59-.135 1.046-.371 1.359-.704.308-.333.515-.673.61-1.019.09-.345.137-.655.137-.927 0-.32-.076-.642-.227-.96-.148-.318-.44-.597-.86-.827-.429-.232-1.014-.346-1.77-.346-.005.409-.01.855-.018 1.34-.007.484-.012.865-.018 1.15l-.016 1.054c-.01.423-.02.926-.027 1.494.002.206.013.661.032 1.374.02.714.031 1.48.047 2.306.17.014.448.046.832.091.389.044.684.07.889.081l.081.296c-.266-.008-.724-.017-1.354-.024-.626-.009-1.101-.02-1.416-.027-.245.007-.612.018-1.104.027-.491.007-.847.016-1.058.024l.077-.296c.57-.05 1.043-.108 1.42-.172 0-.585.01-1.457.03-2.62.017-1.157.028-2.11.028-2.856 0-1.424-.018-2.477-.057-3.163-.373-.086-.854-.149-1.446-.189l-.052-.284zm-7.08-.139c.164-.016.402-.023.722-.023.794 0 1.516.113 2.168.338.646.227 1.202.548 1.657.96.46.414.807.896 1.048 1.45.24.553.358 1.149.358 1.792 0 .487-.043.91-.133 1.269-.178.77-.513 1.458-1.004 2.07-.49.61-1.125 1.094-1.894 1.45-.769.359-1.643.558-2.62.607-1.023 0-1.9-.153-2.638-.457-.74-.304-1.332-.697-1.775-1.18-.444-.48-.766-.987-.972-1.515-.207-.533-.311-1.03-.322-1.5.022-.053.03-.12.03-.19.035-.648.172-1.255.404-1.829.227-.57.567-1.087 1.006-1.544.44-.461.992-.84 1.66-1.138.668-.297 1.436-.484 2.306-.56zm-.885.612c-.506.126-.945.323-1.314.58-.373.263-.67.567-.9.91-.23.343-.401.717-.51 1.119-.111.405-.174.828-.185 1.269.011.08.022.2.033.36.003.162.014.28.023.358.085.581.245 1.109.482 1.578.242.47.535.873.872 1.214.347.338.712.617 1.105.828.394.21.797.361 1.206.448l.659.083c.466 0 .925-.089 1.373-.261.45-.177.851-.432 1.204-.769.355-.335.637-.743.844-1.23.207-.484.314-1.029.314-1.634 0-.8-.18-1.586-.535-2.356-.353-.769-.855-1.395-1.498-1.877-.65-.486-1.382-.728-2.203-.728-.374 0-.698.038-.97.108zm-14.888 2.08c.117-1.223.175-2.368.175-3.435.18.034.286.054.327.054.03.533.053.837.078.905.82.06 2.24.105 4.246.137 2.21-.034 3.758-.079 4.651-.137 0-.018.029-.147.09-.39.06-.245.09-.396.103-.46.034-.01.093-.023.167-.033.07-.013.132-.017.168-.022-.047.286-.1.616-.148 1.003-.047.381-.103.874-.176 1.477-.07.605-.114.942-.12 1.01-.113-.056-.212-.083-.298-.083 0-.08.005-.248.014-.493.011-.248.011-.443.011-.587v-.284c-.09-.1-.354-.196-.777-.284-.427-.089-.902-.164-1.437-.216-.533-.054-.97-.081-1.312-.081-.018.106-.032.311-.038.619-.005.306-.018.686-.023 1.14l-.024 1.621c.042 3.2.065 4.901.085 5.098.76.088 1.34.145 1.728.172l.056.296c-.236-.033-1.035-.05-2.392-.05-.55 0-1.095.005-1.642.015-.549.011-.96.024-1.24.035l.08-.269c.085-.012.368-.043.854-.097.484-.052.778-.088.866-.102.043-1.687.066-3.228.066-4.628 0-1.78-.023-3.06-.066-3.85-1.743 0-2.909.185-3.492.554-.043.077-.101.284-.168.623-.064.335-.11.552-.131.648 0 .009-.041.025-.137.048-.09.022-.137.038-.144.045zm-8.64 2.678l.108-1.109h4.1l-.196.65c-.464.009-.972.043-1.519.099-.552.054-1.067.117-1.553.187-.484.074-.794.126-.94.173zm-9.549-4.947L20.741.91c.164 0 .585.013 1.253.036.67.02 1.176.032 1.518.043.86-.03 1.494-.056 1.906-.079l-.081.284c-.034 0-.51.063-1.431.186-.013.164-.027.363-.034.605-.008.24-.015.694-.026 1.36l-.025 1.36c.049 3.3.078 5.065.085 5.29.173.034.44.077.812.127.378.047.581.072.619.072l.08.269c-.197-.008-.595-.017-1.194-.024-.598-.012-1.037-.02-1.318-.027-.236.007-.616.015-1.16.027-.545.007-.881.016-1.004.024l.05-.269c.057-.009.174-.025.355-.045.179-.02.37-.045.575-.072.196-.027.372-.057.52-.082.005-.09.01-.339.021-.756.011-.416.022-.9.027-1.446.006-.545.006-1.125.006-1.733 0-.94-.006-1.827-.02-2.653-.007-.827-.023-1.5-.034-2.027-.09-.027-.565-.096-1.426-.213zm-11.17 0l.224.04c.132.027.247.05.348.072.095.023.183.05.272.077.07.069.324.558.756 1.471.439.907.941 1.989 1.526 3.24.58 1.256 1.103 2.378 1.557 3.366.464.99.71 1.52.756 1.59.36-.784.76-1.624 1.2-2.528.434-.898.915-1.863 1.437-2.898.522-1.033.988-1.944 1.406-2.73.416-.787.695-1.291.839-1.51.221-.044.49-.107.797-.19l.081-.257c-.124.013-.355.02-.7.03l-.76.02c-.205-.007-.538-.014-.993-.025-.458-.007-.803-.014-1.035-.025l.055.257c.405.069.83.132 1.273.19-.083.386-.277.95-.569 1.684-.299.736-.62 1.483-.968 2.243-.348.758-.686 1.487-1.014 2.176-.329.693-.496 1.039-.496 1.044-.036 0-.242-.41-.618-1.233-.37-.824-.808-1.812-1.298-2.972-.486-1.157-.887-2.127-1.193-2.92.135-.078.56-.15 1.283-.212l.053-.257c-.168 0-.989.018-2.472.05-.198-.005-.506-.01-.934-.023-.421-.009-.713-.016-.862-.027l.048.257zm-6.1 4.396c.357.009.908.022 1.66.036.755.016 1.153.023 1.187.029 0-.013-.054-.182-.166-.511-.119-.335-.277-.803-.488-1.413-.205-.605-.358-1.052-.453-1.33l-.268-.803H5c-.13.334-.39 1.036-.78 2.116-.397 1.077-.624 1.703-.676 1.876zM0 10.496l.05-.3c.02-.006.213-.037.57-.093.356-.054.55-.093.593-.11.056-.071.24-.493.551-1.263.311-.77.666-1.665 1.06-2.695.403-1.027.772-1.998 1.12-2.914.344-.912.563-1.501.651-1.766-.054-.055-.405-.12-1.05-.189L3.511.882c.268.022.925.047 1.958.077C6.606.927 7.31.9 7.583.882l-.028.284c-.63.096-.97.162-1.023.19.252.83.616 1.893 1.08 3.19.466 1.295.91 2.47 1.327 3.52.416 1.051.704 1.694.858 1.928.013.007.198.04.557.095.361.052.563.08.606.08l.058.298c.005 0-.77-.02-2.328-.056-.248.007-.639.016-1.177.027-.538.01-.882.018-1.038.029l.079-.299c.284-.01.583-.041.889-.095.306-.054.466-.08.477-.08-.049-.196-.275-.858-.677-1.976-.4-1.12-.648-1.782-.743-1.985-.94 0-1.98.048-3.118.147-.056.101-.155.438-.313 1.01-.155.574-.304 1.152-.436 1.728-.133.578-.203.936-.203 1.077.364.117.743.174 1.14.174l.079.299c-.432-.038-1.034-.056-1.795-.056-1.051 0-1.67.027-1.854.085z" mask="url(#r7tdxngjub)"/>
                        </g>
                        <path fill="#FEFEFE" d="M35.238 22.015V16.74h1.854l.505.648.107.162-.018.288-.288 4.176h-2.16zm-3.222-4.176l-.018-.288.128-.162.502-.648h1.854v5.274h-2.178l-.288-4.176zm.27-5.274c-.018-.54-.018-1.08 0-1.62l4.34-4.878c.106.414.214.828.304 1.242l-4.644 5.256zm.342-4.608c.09-.558.216-1.098.36-1.638.126-.432.252-.9.396-1.35h2.864l-3.836 4.338c.054-.45.126-.9.216-1.35zm-.414-6.534c0-.018.018-.036.036-.036.108-.09.27-.162.468-.198.72-.072 1.422-.09 2.124-.09.684 0 1.386.018 2.088.072.234.072.396.162.522.252L36.354 3.87H33.33l-1.116-2.448zM37.326 9.9l-4.734 5.364c-.09-.45-.144-.882-.198-1.332l4.77-5.382c.072.45.126.9.162 1.35zm-.288 5.742h-3.456l3.834-4.338c.036 1.458-.09 2.916-.378 4.338zm8.784 1.26l-7.902.108c-.198-.234-.378-.468-.54-.684.45-2.052.595-4.122.432-6.21-.072-.882-.198-1.746-.378-2.628-.162-.792-.358-1.602-.612-2.394l-.216-.648c.47-1.026.92-2.052 1.386-3.078-.09-.324-.414-.558-.972-.738-1.458-.108-2.916-.108-4.356 0-.538.126-.864.378-.989.738l1.403 3.078c-.702 2.106-1.134 4.194-1.242 6.246-.036 1.008-.018 2.016.09 3.024.072.882.216 1.746.414 2.61-.18.216-.36.45-.54.684l-7.92-.09c-.378.252-.378.522-.018.774 2.574.072 5.13.126 7.704.198l.288 4.122v.108l.018.108h5.958v-.108l.018-.108.288-4.122c2.574-.072 5.148-.144 7.704-.198.378-.27.378-.54-.018-.792zM32.844 29.7c-.09-.054-.252-.108-.468-.144l.126 1.782c.145-.522.27-.936.36-1.242.036-.126.072-.234.09-.324-.018-.018-.054-.054-.108-.072zm4.122.072c.072.324.162.648.252.99l.09-1.098c-.18.054-.306.09-.342.108zm-1.638 34.542v.018c.216-.162.414-.324.612-.468-.198.144-.396.306-.612.45zm.306 2.232c-.252.198-.504.378-.774.576-.234-.162-.45-.342-.684-.504l.036.144.054.18c.181.144.342.27.522.396l.072.054.054-.054c.216-.162.414-.306.63-.468.198-.144.378-.288.576-.432l.036-.162.036-.162c-.18.162-.378.288-.558.432z"/>
                        <path fill="#FEFEFE" d="M36.553 40.195l-.02.486h.144c0-.018-.034-.162-.124-.486zm-.36 25.92c-.182.162-.378.288-.56.432l-.034.162-.056.162c.2-.144.378-.288.578-.432.196-.144.394-.306.594-.432l.034-.18.038-.162c-.198.162-.398.324-.594.45zm-2.576.198l-.034-.144c-.2-.144-.396-.288-.594-.432l.036.144.052.18c.2.144.398.306.594.45l-.054-.198zm3.422-50.67h-3.456l3.832-4.338c.038 1.458-.088 2.916-.376 4.338zm-4.446-.378c-.09-.45-.144-.882-.2-1.332l4.772-5.382c.072.45.124.9.162 1.35l-4.734 5.364zm-.306-4.32l4.338-4.878c.108.414.214.828.306 1.242l-4.644 5.256c-.02-.54-.02-1.08 0-1.62zm3.96-5.976L32.41 9.307c.054-.45.128-.9.216-1.35.09-.558.216-1.098.362-1.638.126-.432.25-.9.394-1.35h2.864zm-3.998-3.582c.11-.09.272-.162.468-.198.722-.072 1.422-.09 2.126-.09.684 0 1.384.018 2.088.072.234.072.396.162.522.252L36.355 3.87H33.33l-1.116-2.448c0-.018.018-.036.034-.036zm14.15 15.354c-.09-.108-.2-.216-.344-.324l-.234-.072-7.722.108-.234-.288c.396-1.908.54-3.834.416-5.778-.126-1.962-.522-3.924-1.17-5.904l1.278-2.844.036-.45C38.333.9 38.17.667 37.92.469c-.2-.144-.468-.27-.794-.378h-.088C36.317.019 35.58 0 34.843 0c-.756 0-1.494.018-2.216.09h-.072c-.306.072-.556.198-.772.36-.252.18-.416.414-.522.702l.036.486 1.278 2.844c-.164.504-.308.99-.432 1.512-.162.558-.288 1.134-.396 1.71-.522 2.862-.504 5.67.09 8.46l-.234.306-7.722-.108-.216.072c-.344.234-.522.522-.522.864-.018.342.162.63.504.882l.214.072 7.292.18.252 3.582v.108l.016.108h.9v-.108l-.016-.108-.29-4.176-.016-.288.126-.162.502-.648h4.466l.504.648.108.162-.018.288-.288 4.176-.018.108v.108h.9l.018-.108v-.108l.25-3.582 7.31-.198.216-.072c.142-.09.252-.198.324-.324.126-.162.162-.342.162-.558 0-.18-.056-.36-.162-.54zm-9.09 12.924c-.182.054-.306.09-.344.108.074.324.162.648.252.99.126.432.236.882.36 1.368l.182-2.574c-.182.036-.326.072-.45.108zm-4.466.036c-.088-.054-.25-.108-.466-.144-.128-.036-.272-.072-.45-.108l.216 3.096c.124-.45.25-.846.36-1.206.144-.522.268-.936.358-1.242l-.018-.396z"/>
                        <mask id="7bl02gmp9d" fill="#fff">
                            <use xlink:href="#2l0kv5b19c"/>
                        </mask>
                        <path fill="#FEFEFE" d="M34.481 22.23L35.237 22.23 35.237 16.344 34.481 16.344zM34.842 64.657l-.018.126-.02-.144c.02 0 .02.018.038.018" mask="url(#7bl02gmp9d)"/>
                        <path fill="#FEFEFE" d="M55.722 25.92c-.34-.036-.666-.108-.972-.18-.288-.072-.575-.162-.828-.288-1.332-.594-2.124-1.71-2.394-3.348l-.018-.09H18.192v.09h-.017c-.055.324-.127.63-.216.9-.091.288-.217.558-.343.792-.684 1.224-1.89 1.944-3.635 2.124h-.11l.019.108c.18 1.656.36 3.186.504 4.644 2.07 19.17 2.503 23.238 18.684 35.388.198.144.397.306.594.45l-.054-.198-.036-.144-.594-.432c-15.894-11.97-16.326-16.092-18.378-35.1-.162-1.422-.324-2.934-.504-4.518 1.764-.216 2.988-.954 3.708-2.214.145-.252.252-.522.342-.828.091-.27.162-.54.216-.846h32.96c.304 1.674 1.132 2.808 2.5 3.42.271.126.558.216.865.306.287.072.575.126.9.162-.181 1.584-.343 3.096-.505 4.518-2.052 18.99-2.483 23.112-18.306 35.028-.198.162-.396.324-.594.45-.18.162-.378.288-.558.432-.252.198-.503.378-.774.576-.234-.162-.45-.342-.684-.504l.036.144.054.18c.181.144.343.27.522.396l.072.054.054-.054c.217-.162.414-.306.63-.468.198-.144.378-.288.576-.432.198-.144.396-.306.594-.432 16.092-12.096 16.524-16.2 18.595-35.334.16-1.458.323-2.988.522-4.644v-.108h-.11z" mask="url(#7bl02gmp9d)"/>
                        <path fill="#FEFEFE" d="M51.42 22.123H18.3c-.396 2.34-1.836 3.636-4.302 3.906 2.59 23.13 1.782 26.874 19.026 39.852l.592.432-.034-.144c-.2-.144-.396-.288-.594-.432-15.894-11.97-16.328-16.092-18.378-35.1-.162-1.422-.324-2.934-.504-4.518 1.764-.216 2.988-.954 3.708-2.214.144-.252.252-.522.342-.828.09-.27.16-.54.216-.846H51.33c.306 1.674 1.134 2.808 2.502 3.42.27.126.556.216.864.306.286.072.576.126.9.162-.18 1.584-.342 3.096-.504 4.518-2.054 18.99-2.484 23.112-18.306 35.028-.198.162-.398.324-.594.45-.182.162-.378.288-.56.432-.25.198-.502.378-.772.576-.234-.162-.45-.342-.684-.504l.034.144.65.486c.25-.18.504-.36.738-.54.18-.144.378-.288.558-.432.198-.144.396-.288.594-.45C53.922 52.903 53.13 49.14 55.722 26.029c-2.484-.27-3.906-1.566-4.302-3.906" mask="url(#7bl02gmp9d)"/>
                        <path fill="#FEFEFE" d="M54.389 27.703c-.18 1.548-.324 2.934-.468 4.23-1.89 17.514-2.304 21.348-16.918 32.364-.144.126-.288.234-.45.342-.182.144-.36.27-.56.414-.268.216-.556.414-.844.63l-.29.216-.306-.216c-.27-.198-.538-.396-.792-.594-.196-.144-.396-.288-.594-.432l-.486-.378c-14.598-10.998-15.01-14.832-16.9-32.346-.144-1.296-.288-2.682-.47-4.23l-.052-.486.502-.054c2.016-.216 3.17-1.278 3.476-3.168l.072-.414h31.084l.072.414c.306 1.89 1.478 2.952 3.494 3.168l.484.054-.054.486zm.308-1.746c-.308-.09-.594-.18-.866-.306-1.366-.612-2.194-1.746-2.5-3.42H18.37c-.054.306-.124.576-.216.846-.09.306-.196.576-.34.828-.722 1.26-1.944 1.998-3.71 2.214.182 1.584.344 3.096.504 4.518 2.052 19.008 2.484 23.13 18.378 35.1.2.144.396.288.594.432l.036.144.054.198c-.196-.144-.394-.306-.594-.45l1.44 5.382.864-.018 1.334-5.418c-.2.126-.398.288-.594.432-.2.144-.378.288-.578.432l-.612 2.556-.666-2.484-.054-.18-.034-.144c.232.162.45.342.682.504.272-.198.522-.378.774-.576.182-.144.378-.27.56-.432.196-.126.394-.288.594-.45 15.822-11.916 16.252-16.038 18.306-35.028.16-1.422.322-2.934.504-4.518-.326-.036-.614-.09-.9-.162z" mask="url(#7bl02gmp9d)"/>
                        <path fill="#FEFEFE" d="M32.844 29.7c-.09-.053-.252-.107-.468-.143-.126-.036-.27-.072-.45-.108l.216 3.096c.126-.45.252-.846.361-1.206.144-.522.269-.936.359-1.242.036-.126.072-.234.091-.324-.02-.018-.055-.054-.11-.072m4.465-.036c-.18.054-.305.09-.342.108.072.324.162.648.252.99.126.432.235.882.36 1.368l.18-2.574c-.18.036-.324.072-.45.108" mask="url(#7bl02gmp9d)"/>
                        <path fill="#FEFEFE" d="M41.448 52.92c-.504.018-1.332.036-2.432.054-1.132.036-1.834.072-2.158.09l.162-.774c.594-.018 1.206-.09 1.854-.234.63-.144.954-.198.972-.198-.09-.504-.576-2.196-1.404-5.058-.828-2.862-1.332-4.554-1.532-5.076h-.466c-.144 0-.288 0-.434.018h-.772c-.252.018-.504.036-.756.036l-.794.054c-.142 0-.286.018-.45.036-.142 0-.286 0-.45.018-.754.054-1.546.126-2.356.216-.108.252-.324 1.116-.648 2.574-.306 1.476-.612 2.952-.9 4.428-.27 1.476-.414 2.394-.414 2.754.756.288 1.546.432 2.358.432l.16.774c-.9-.09-2.14-.144-3.724-.144-2.178 0-3.456.072-3.834.216l.108-.774c.036 0 .432-.09 1.17-.234.738-.144 1.152-.234 1.242-.27.108-.198.486-1.278 1.134-3.24.648-1.962 1.386-4.266 2.196-6.876.828-2.628 1.602-5.112 2.322-7.452.198-.648.378-1.224.54-1.746l-.216-3.096c-.306-.054-.702-.108-1.152-.162l-.072-.738c.234.036.63.054 1.17.09.144 0 .288.018.45.018.144 0 .288.018.45.018.486.018 1.062.054 1.71.072.09.018.178.018.288.018.162 0 .324-.018.468-.018.648-.018 1.206-.054 1.692-.072.162 0 .306-.018.45-.018.162 0 .306-.018.45-.018.63-.036 1.062-.072 1.314-.09l-.036.738c-.558.108-1.008.198-1.35.27l-.18 2.574c.45 1.674.988 3.6 1.638 5.796.972 3.312 1.89 6.318 2.754 9 .864 2.682 1.458 4.32 1.782 4.932.018.018.414.09 1.152.234.738.144 1.17.198 1.26.198l.108.774s-1.602-.054-4.824-.144m8.118-28.35h-29.43c-.45 1.98-1.71 3.15-3.78 3.492.144 1.296.27 2.556.414 3.762.054.522.108 1.044.162 1.548.054.522.106 1.008.162 1.494.016.144.036.288.054.432l.108.918c.036.306.072.594.108.882.052.576.124 1.134.196 1.674.074.576.146 1.134.236 1.674.09.738.214 1.44.342 2.106.072.414.144.828.234 1.242.072.396.162.792.252 1.17.126.504.252 1.008.396 1.494.036.162.09.324.144.486.09.27.162.54.27.81.108.342.232.684.376 1.026.11.288.236.594.378.882.218.45.434.9.686 1.35.108.198.214.396.324.594.108.198.234.396.36.594.144.234.306.486.502.738.2.288.416.594.632.882.018.036.054.054.072.09.396.504.828 1.026 1.278 1.548.486.522.99 1.062 1.546 1.602.272.252.56.522.848.81 1.242 1.17 2.7 2.394 4.374 3.708.36.288.72.594 1.116.864.324.27.666.522 1.008.792.126.09.252.198.396.288.126.108.252.198.396.306.198.144.396.306.612.45.054.036.09.072.144.108.106.09.216.162.324.252.018 0 .018.018.036.018l.018.018c.126-.09.25-.198.378-.288.036-.018.072-.036.09-.054v-.018c.216-.144.414-.306.61-.45.146-.09.272-.198.398-.306.124-.09.27-.198.396-.288 2.25-1.71 4.14-3.222 5.742-4.68.558-.486 1.098-.99 1.602-1.476.576-.558 1.098-1.116 1.584-1.656.468-.522.882-1.026 1.278-1.53.234-.306.468-.612.684-.918.342-.504.666-1.008.954-1.512.09-.126.162-.252.216-.378.072-.126.144-.27.216-.396.126-.252.252-.522.378-.774.144-.288.27-.576.396-.882.216-.558.432-1.116.628-1.692.092-.306.182-.612.272-.918.09-.306.178-.63.252-.936.09-.324.162-.666.232-.99.092-.342.164-.684.218-1.026.144-.702.288-1.44.396-2.196.054-.378.126-.774.18-1.17.178-1.206.342-2.484.486-3.852.054-.45.108-.918.162-1.386.052-.486.108-.972.162-1.458.054-.522.126-1.062.18-1.62.126-1.206.252-2.466.414-3.762-2.07-.342-3.33-1.512-3.798-3.492" mask="url(#7bl02gmp9d)"/>
                        <path fill="#FEFEFE" d="M36.553 40.195l-.02.486c-.106 0-.25 0-.45-.018-.216 0-.502-.018-.844-.018-.218-.018-.468-.018-.756-.036h-.252c-.216 0-.432-.018-.632-.018-.144 0-.306 0-.45-.018h-.45c-.81-.018-1.456-.036-1.924-.054.108-.432.574-2.034 1.402-4.788.056-.18.11-.342.144-.504.128-.432.254-.846.362-1.224.144-.432.25-.828.378-1.188.342-1.17.594-1.998.738-2.502h.034c.182.648.36 1.332.56 2.052.034.108.072.234.09.36.178.648.432 1.53.756 2.664l.108.378c.358 1.296.646 2.34.864 3.15.054.162.088.324.126.468.09.342.162.612.216.81M34.805 64.639l.02.144.018-.126c-.018 0-.018-.018-.038-.018" mask="url(#7bl02gmp9d)"/>
                    </g>
                </g>
            </g>
        </g>
    </g>
</svg>
